<?xml version="1.0" encoding="UTF-8"?>
<svg xmlns="http://www.w3.org/2000/svg" xmlns:xlink="http://www.w3.org/1999/xlink" width="44px" height="44px" viewBox="0 0 44 44" version="1.1">
<g id="surface1">
<path style=" stroke:none;fill-rule:nonzero;fill:rgb(0%,0%,0%);fill-opacity:1;" d="M 22.496094 42.625 L 21.503906 42.625 L 21.503906 39.875 L 22.496094 39.875 Z M 36.234375 36.933594 L 34.289062 34.988281 L 34.992188 34.289062 L 36.933594 36.234375 Z M 7.765625 36.933594 L 7.066406 36.234375 L 9.011719 34.289062 L 9.710938 34.988281 Z M 25.4375 36.246094 C 23.960938 36.246094 22.671875 35.425781 22 34.21875 C 21.328125 35.425781 20.039062 36.246094 18.5625 36.246094 C 16.785156 36.246094 15.253906 35.042969 14.789062 33.367188 C 11.839844 34.089844 9.132812 31.765625 9.128906 28.875 C 9.128906 28.3125 9.238281 27.757812 9.453125 27.222656 C 7.570312 26.167969 6.378906 24.167969 6.378906 22 C 6.378906 19.832031 7.570312 17.832031 9.453125 16.777344 C 9.238281 16.242188 9.128906 15.6875 9.128906 15.125 C 9.128906 12.234375 11.820312 9.910156 14.789062 10.632812 C 15.253906 8.957031 16.785156 7.753906 18.5625 7.753906 C 20.039062 7.753906 21.328125 8.574219 22 9.777344 C 22.671875 8.574219 23.960938 7.753906 25.4375 7.753906 C 27.214844 7.753906 28.746094 8.957031 29.210938 10.632812 C 32.136719 9.917969 34.871094 12.230469 34.871094 15.125 C 34.871094 15.6875 34.761719 16.238281 34.546875 16.777344 C 36.429688 17.832031 37.621094 19.832031 37.621094 22 C 37.621094 24.167969 36.429688 26.167969 34.546875 27.222656 C 34.761719 27.761719 34.871094 28.3125 34.871094 28.875 C 34.871094 31.765625 32.164062 34.085938 29.210938 33.367188 C 28.746094 35.042969 27.214844 36.246094 25.4375 36.246094 Z M 22.496094 32.3125 C 22.496094 33.933594 23.816406 35.253906 25.4375 35.253906 C 26.910156 35.253906 28.160156 34.144531 28.339844 32.675781 C 28.359375 32.523438 28.445312 32.390625 28.574219 32.3125 C 28.703125 32.234375 28.863281 32.21875 29.003906 32.269531 C 31.53125 33.203125 33.878906 31.285156 33.878906 28.875 C 33.878906 28.316406 33.738281 27.757812 33.460938 27.222656 C 33.398438 27.101562 33.390625 26.960938 33.433594 26.832031 C 33.476562 26.703125 33.570312 26.597656 33.695312 26.542969 C 35.476562 25.730469 36.628906 23.945312 36.628906 22 C 36.628906 20.054688 35.476562 18.269531 33.695312 17.457031 C 33.570312 17.398438 33.476562 17.292969 33.433594 17.167969 C 33.390625 17.039062 33.398438 16.898438 33.460938 16.777344 C 33.738281 16.238281 33.878906 15.683594 33.878906 15.125 C 33.878906 12.714844 31.558594 10.796875 29.003906 11.730469 C 28.859375 11.78125 28.703125 11.765625 28.574219 11.6875 C 28.445312 11.609375 28.359375 11.476562 28.339844 11.324219 C 28.160156 9.855469 26.910156 8.746094 25.4375 8.746094 C 23.816406 8.746094 22.496094 10.066406 22.496094 11.6875 L 22.496094 13.75 L 21.503906 13.75 L 21.503906 11.6875 C 21.503906 10.066406 20.183594 8.746094 18.5625 8.746094 C 17.089844 8.746094 15.839844 9.855469 15.660156 11.328125 C 15.640625 11.476562 15.554688 11.609375 15.425781 11.6875 C 15.296875 11.769531 15.136719 11.78125 14.996094 11.730469 C 12.449219 10.796875 10.121094 12.714844 10.121094 15.125 C 10.121094 15.6875 10.261719 16.242188 10.539062 16.777344 C 10.574219 16.847656 10.59375 16.925781 10.59375 17.007812 C 10.59375 17.0625 10.585938 17.113281 10.566406 17.167969 C 10.523438 17.296875 10.425781 17.402344 10.304688 17.457031 C 8.523438 18.269531 7.371094 20.054688 7.371094 22 C 7.371094 23.945312 8.523438 25.730469 10.304688 26.542969 C 10.429688 26.601562 10.523438 26.703125 10.566406 26.832031 C 10.585938 26.886719 10.59375 26.9375 10.59375 26.992188 C 10.59375 27.074219 10.578125 27.148438 10.539062 27.222656 C 10.261719 27.757812 10.121094 28.316406 10.121094 28.875 C 10.121094 31.285156 12.46875 33.199219 14.996094 32.269531 C 15.132812 32.21875 15.296875 32.234375 15.425781 32.3125 C 15.554688 32.390625 15.640625 32.523438 15.660156 32.675781 C 15.839844 34.144531 17.089844 35.253906 18.5625 35.253906 C 20.183594 35.253906 21.503906 33.933594 21.503906 32.3125 L 21.503906 30.25 L 22.496094 30.25 Z M 15.992188 29.371094 C 15.863281 29.371094 15.738281 29.320312 15.640625 29.226562 L 14.777344 28.359375 C 14.617188 28.203125 14.585938 27.960938 14.695312 27.765625 L 15.757812 25.882812 C 15.832031 25.746094 15.964844 25.65625 16.121094 25.632812 C 16.277344 25.605469 16.429688 25.664062 16.539062 25.777344 L 17.03125 26.269531 L 19.589844 23.710938 L 20.289062 24.414062 L 17.730469 26.96875 L 18.226562 27.46875 C 18.335938 27.574219 18.386719 27.730469 18.367188 27.886719 C 18.34375 28.039062 18.253906 28.171875 18.117188 28.246094 L 16.234375 29.308594 C 16.15625 29.347656 16.074219 29.371094 15.992188 29.371094 Z M 15.742188 27.925781 L 16.078125 28.261719 L 17.066406 27.703125 L 16.300781 26.9375 Z M 26.152344 29.367188 C 25.3125 29.367188 24.484375 29.042969 23.867188 28.425781 C 23.058594 27.613281 22.742188 26.429688 23.027344 25.335938 L 18.664062 20.972656 C 17.570312 21.253906 16.382812 20.941406 15.574219 20.128906 C 14.609375 19.167969 14.359375 17.691406 14.945312 16.460938 C 15.011719 16.316406 15.148438 16.214844 15.308594 16.1875 C 15.46875 16.15625 15.628906 16.210938 15.742188 16.324219 L 17.558594 18.144531 C 17.71875 18.300781 17.992188 18.296875 18.144531 18.144531 C 18.308594 17.980469 18.308594 17.71875 18.144531 17.558594 L 16.328125 15.738281 C 16.210938 15.625 16.160156 15.464844 16.1875 15.304688 C 16.214844 15.148438 16.316406 15.011719 16.460938 14.945312 C 17.695312 14.359375 19.167969 14.609375 20.132812 15.574219 C 20.941406 16.382812 21.257812 17.570312 20.972656 18.664062 L 25.335938 23.027344 C 26.429688 22.742188 27.613281 23.054688 28.425781 23.867188 C 29.390625 24.832031 29.640625 26.304688 29.054688 27.535156 C 28.984375 27.679688 28.851562 27.785156 28.691406 27.808594 C 28.539062 27.839844 28.371094 27.785156 28.257812 27.671875 L 26.4375 25.851562 C 26.277344 25.691406 26.015625 25.691406 25.851562 25.851562 C 25.691406 26.011719 25.691406 26.277344 25.851562 26.4375 L 27.671875 28.257812 C 27.785156 28.371094 27.835938 28.53125 27.808594 28.691406 C 27.78125 28.847656 27.679688 28.984375 27.535156 29.054688 C 27.09375 29.265625 26.621094 29.367188 26.152344 29.367188 Z M 18.804688 19.914062 C 18.933594 19.914062 19.058594 19.964844 19.152344 20.058594 L 23.9375 24.84375 C 24.078125 24.980469 24.121094 25.1875 24.054688 25.367188 C 23.75 26.183594 23.953125 27.109375 24.570312 27.722656 C 25.050781 28.210938 25.734375 28.429688 26.378906 28.367188 L 25.152344 27.136719 C 24.605469 26.59375 24.605469 25.699219 25.152344 25.152344 C 25.703125 24.605469 26.589844 24.605469 27.136719 25.152344 L 28.367188 26.378906 C 28.433594 25.722656 28.210938 25.050781 27.722656 24.570312 C 27.109375 23.953125 26.179688 23.75 25.367188 24.054688 C 25.1875 24.117188 24.984375 24.074219 24.84375 23.9375 L 20.058594 19.152344 C 19.921875 19.019531 19.878906 18.8125 19.945312 18.632812 C 20.25 17.816406 20.046875 16.890625 19.429688 16.273438 C 18.945312 15.789062 18.273438 15.566406 17.617188 15.632812 L 18.84375 16.863281 C 19.390625 17.410156 19.390625 18.300781 18.84375 18.847656 C 18.316406 19.375 17.386719 19.375 16.859375 18.847656 L 15.632812 17.621094 C 15.5625 18.277344 15.789062 18.949219 16.273438 19.433594 C 16.890625 20.050781 17.816406 20.25 18.628906 19.949219 C 18.6875 19.925781 18.746094 19.914062 18.804688 19.914062 Z M 42.625 22.496094 L 39.875 22.496094 L 39.875 21.503906 L 42.625 21.503906 Z M 4.125 22.496094 L 1.375 22.496094 L 1.375 21.503906 L 4.125 21.503906 Z M 25.261719 20.972656 L 24.558594 20.273438 L 28.207031 16.625 C 28.316406 16.515625 28.378906 16.367188 28.378906 16.207031 C 28.378906 16.050781 28.316406 15.902344 28.207031 15.792969 C 27.980469 15.566406 27.597656 15.566406 27.375 15.792969 L 23.726562 19.4375 L 23.027344 18.738281 L 26.671875 15.09375 C 27.269531 14.492188 28.3125 14.492188 28.90625 15.09375 C 29.207031 15.390625 29.371094 15.785156 29.371094 16.207031 C 29.371094 16.628906 29.207031 17.027344 28.90625 17.328125 Z M 34.988281 9.710938 L 34.289062 9.011719 L 36.234375 7.066406 L 36.933594 7.765625 Z M 9.011719 9.710938 L 7.066406 7.765625 L 7.765625 7.066406 L 9.710938 9.011719 Z M 22.496094 4.125 L 21.503906 4.125 L 21.503906 1.375 L 22.496094 1.375 Z M 22.496094 4.125 "/>
</g>
</svg>
