<?xml version="1.0" encoding="UTF-8"?>
<svg xmlns="http://www.w3.org/2000/svg" xmlns:xlink="http://www.w3.org/1999/xlink" width="44px" height="44px" viewBox="0 0 44 44" version="1.1">
<g id="surface1">
<path style=" stroke:none;fill-rule:nonzero;fill:rgb(0%,0%,0%);fill-opacity:1;" d="M 37.371094 10.835938 L 37.371094 6.628906 L 33.164062 6.628906 L 33.164062 0 L 30.292969 0 L 30.292969 6.628906 L 26.679688 6.628906 L 26.679688 0 L 23.808594 0 L 23.808594 6.628906 L 20.191406 6.628906 L 20.191406 0 L 17.320312 0 L 17.320312 6.628906 L 13.707031 6.628906 L 13.707031 0 L 10.835938 0 L 10.835938 6.628906 L 6.628906 6.628906 L 6.628906 10.835938 L 0 10.835938 L 0 13.707031 L 6.628906 13.707031 L 6.628906 17.320312 L 0 17.320312 L 0 20.191406 L 6.628906 20.191406 L 6.628906 23.808594 L 0 23.808594 L 0 26.679688 L 6.628906 26.679688 L 6.628906 30.292969 L 0 30.292969 L 0 33.164062 L 6.628906 33.164062 L 6.628906 37.371094 L 10.835938 37.371094 L 10.835938 44 L 13.707031 44 L 13.707031 37.371094 L 17.320312 37.371094 L 17.320312 44 L 20.191406 44 L 20.191406 37.371094 L 23.808594 37.371094 L 23.808594 44 L 26.679688 44 L 26.679688 37.371094 L 30.292969 37.371094 L 30.292969 44 L 33.164062 44 L 33.164062 37.371094 L 37.371094 37.371094 L 37.371094 33.164062 L 44 33.164062 L 44 30.292969 L 37.371094 30.292969 L 37.371094 26.679688 L 44 26.679688 L 44 23.808594 L 37.371094 23.808594 L 37.371094 20.191406 L 44 20.191406 L 44 17.320312 L 37.371094 17.320312 L 37.371094 13.707031 L 44 13.707031 L 44 10.835938 Z M 32.292969 24.273438 C 32.292969 26.261719 31.066406 27.96875 29.335938 28.679688 C 29.214844 30.992188 27.296875 32.839844 24.953125 32.839844 C 23.816406 32.839844 22.78125 32.40625 22 31.695312 C 21.21875 32.40625 20.183594 32.839844 19.046875 32.839844 C 16.703125 32.839844 14.785156 30.992188 14.664062 28.679688 C 12.929688 27.96875 11.707031 26.261719 11.707031 24.273438 C 11.707031 23.46875 11.910156 22.691406 12.285156 22 C 11.917969 21.324219 11.707031 20.546875 11.707031 19.726562 C 11.707031 17.757812 12.925781 16.039062 14.664062 15.320312 C 14.785156 13.007812 16.703125 11.160156 19.046875 11.160156 C 20.183594 11.160156 21.21875 11.59375 22 12.304688 C 22.78125 11.59375 23.816406 11.160156 24.953125 11.160156 C 27.296875 11.160156 29.214844 13.007812 29.335938 15.320312 C 31.074219 16.039062 32.292969 17.757812 32.292969 19.726562 C 32.292969 20.546875 32.082031 21.324219 31.714844 22 C 32.089844 22.691406 32.292969 23.46875 32.292969 24.273438 Z M 32.292969 24.273438 "/>
<path style=" stroke:none;fill-rule:nonzero;fill:rgb(0%,0%,0%);fill-opacity:1;" d="M 19.046875 14.03125 C 18.210938 14.03125 17.527344 14.710938 17.527344 15.546875 C 17.527344 16.175781 17.925781 16.75 18.515625 16.96875 L 17.507812 19.65625 C 16.679688 19.347656 15.984375 18.796875 15.488281 18.109375 C 14.941406 18.441406 14.578125 19.046875 14.578125 19.726562 C 14.578125 20.765625 15.425781 21.617188 16.464844 21.617188 L 16.464844 24.484375 C 15.796875 24.484375 15.164062 24.347656 14.585938 24.097656 C 14.578125 24.15625 14.578125 24.214844 14.578125 24.273438 C 14.578125 25.316406 15.425781 26.164062 16.464844 26.164062 C 17.007812 26.164062 17.503906 25.945312 17.867188 25.542969 L 19.996094 27.46875 C 19.351562 28.179688 18.511719 28.671875 17.59375 28.894531 C 17.785156 29.515625 18.363281 29.96875 19.046875 29.96875 C 19.882812 29.96875 20.566406 29.289062 20.566406 28.453125 L 20.566406 15.546875 C 20.566406 14.710938 19.882812 14.03125 19.046875 14.03125 Z M 19.046875 14.03125 "/>
<path style=" stroke:none;fill-rule:nonzero;fill:rgb(0%,0%,0%);fill-opacity:1;" d="M 27.535156 24.484375 L 27.535156 21.617188 C 28.574219 21.617188 29.421875 20.765625 29.421875 19.726562 C 29.421875 19.046875 29.058594 18.441406 28.511719 18.109375 C 28.015625 18.796875 27.320312 19.347656 26.492188 19.65625 L 25.484375 16.96875 C 26.074219 16.75 26.472656 16.175781 26.472656 15.546875 C 26.472656 14.710938 25.789062 14.03125 24.953125 14.03125 C 24.117188 14.03125 23.433594 14.710938 23.433594 15.546875 L 23.433594 28.453125 C 23.433594 29.289062 24.117188 29.96875 24.953125 29.96875 C 25.636719 29.96875 26.214844 29.515625 26.402344 28.894531 C 25.488281 28.671875 24.648438 28.179688 24.003906 27.46875 L 26.132812 25.542969 C 26.496094 25.945312 26.992188 26.164062 27.535156 26.164062 C 28.574219 26.164062 29.421875 25.316406 29.421875 24.273438 C 29.421875 24.214844 29.421875 24.15625 29.414062 24.097656 C 28.835938 24.347656 28.203125 24.484375 27.535156 24.484375 Z M 27.535156 24.484375 "/>
</g>
</svg>
