<?xml version="1.0" encoding="UTF-8"?>
<svg xmlns="http://www.w3.org/2000/svg" xmlns:xlink="http://www.w3.org/1999/xlink" width="44px" height="44px" viewBox="0 0 44 44" version="1.1">
<g id="surface1">
<path style=" stroke:none;fill-rule:nonzero;fill:rgb(0%,0%,0%);fill-opacity:1;" d="M 25.214844 20.945312 L 27.0625 19.105469 L 25.179688 17.226562 L 23.339844 19.070312 C 22.570312 18.542969 21.6875 18.179688 20.742188 17.996094 L 20.742188 15.386719 L 18.089844 15.386719 L 18.089844 17.996094 C 17.140625 18.179688 16.261719 18.542969 15.492188 19.070312 L 13.648438 17.226562 L 11.773438 19.105469 L 13.613281 20.945312 C 13.09375 21.714844 12.730469 22.589844 12.546875 23.542969 L 9.933594 23.542969 L 9.933594 26.195312 L 12.546875 26.195312 C 12.730469 27.140625 13.09375 28.015625 13.613281 28.789062 L 11.773438 30.632812 L 13.648438 32.507812 L 15.492188 30.667969 C 16.261719 31.191406 17.140625 31.554688 18.089844 31.738281 L 18.089844 34.347656 L 20.742188 34.347656 L 20.742188 31.738281 C 21.691406 31.558594 22.566406 31.195312 23.34375 30.671875 L 25.179688 32.507812 L 27.0625 30.632812 L 25.21875 28.789062 C 25.742188 28.019531 26.105469 27.140625 26.285156 26.195312 L 28.898438 26.195312 L 28.898438 23.542969 L 26.28125 23.542969 C 26.101562 22.589844 25.742188 21.714844 25.214844 20.945312 Z M 19.414062 27.765625 C 17.816406 27.765625 16.519531 26.464844 16.519531 24.863281 C 16.519531 23.265625 17.816406 21.96875 19.414062 21.96875 C 21.015625 21.96875 22.3125 23.265625 22.3125 24.863281 C 22.316406 26.464844 21.015625 27.765625 19.414062 27.765625 Z M 19.414062 27.765625 "/>
<path style=" stroke:none;fill-rule:nonzero;fill:rgb(0%,0%,0%);fill-opacity:1;" d="M 27.796875 12.019531 C 25.46875 10.527344 22.71875 9.652344 19.753906 9.652344 C 11.503906 9.652344 4.8125 16.339844 4.8125 24.59375 C 4.8125 28.039062 5.992188 31.203125 7.953125 33.734375 L 9.828125 31.859375 C 8.335938 29.820312 7.425781 27.328125 7.425781 24.605469 C 7.425781 17.796875 12.945312 12.28125 19.753906 12.28125 C 22.015625 12.28125 24.105469 12.933594 25.929688 14.011719 L 24.492188 15.546875 L 30.34375 16.074219 L 29.714844 9.964844 Z M 27.796875 12.019531 "/>
<path style=" stroke:none;fill-rule:nonzero;fill:rgb(0%,0%,0%);fill-opacity:1;" d="M 39.1875 24.90625 L 35.523438 21.242188 L 35.523438 23.292969 L 30.695312 23.292969 L 30.695312 26.519531 L 35.523438 26.519531 L 35.523438 28.574219 Z M 39.1875 24.90625 "/>
</g>
</svg>
