<?xml version="1.0" encoding="UTF-8"?>
<svg xmlns="http://www.w3.org/2000/svg" xmlns:xlink="http://www.w3.org/1999/xlink" width="44px" height="44px" viewBox="0 0 44 44" version="1.1">
<g id="surface1">
<path style=" stroke:none;fill-rule:nonzero;fill:rgb(100%,100%,100%);fill-opacity:1;" d="M 30.367188 20.125 C 29.101562 19.519531 27.808594 18.96875 26.496094 18.472656 C 26.09375 18.117188 25.671875 17.785156 25.230469 17.476562 C 25.199219 17.453125 25.152344 17.449219 25.117188 17.472656 C 25.078125 17.492188 25.058594 17.53125 25.058594 17.570312 C 25.0625 17.6875 25.066406 17.796875 25.070312 17.90625 C 24.394531 18.527344 23.628906 19.039062 22.796875 19.421875 C 22.707031 19.464844 22.597656 19.519531 22.714844 19.699219 C 22.660156 20.273438 22.230469 21.554688 21.921875 22.253906 C 21.683594 21.621094 21.339844 20.503906 21.25 19.761719 C 21.3125 19.625 21.21875 19.574219 21.136719 19.539062 C 20.085938 19.054688 19.140625 18.367188 18.359375 17.511719 C 17.640625 17.992188 16.964844 18.527344 16.332031 19.117188 C 15.027344 19.605469 13.746094 20.152344 12.488281 20.753906 C 11.894531 21.035156 11.289062 21.34375 10.878906 21.859375 C 10.648438 22.171875 10.457031 22.511719 10.3125 22.867188 C 9.894531 23.789062 9.136719 26.617188 8.585938 29.480469 L 8.585938 34.742188 C 14.523438 34.734375 25.527344 34.730469 33.566406 34.726562 C 34.21875 34.050781 34.332031 33.59375 34.332031 33.59375 C 34.433594 33.191406 34.480469 32.777344 34.464844 32.363281 C 34.351562 29.929688 33.554688 24.449219 32.746094 22.394531 C 32.589844 22.019531 32.390625 21.660156 32.148438 21.332031 C 31.710938 20.785156 31.074219 20.460938 30.449219 20.160156 Z M 30.367188 20.125 "/>
<path style=" stroke:none;fill-rule:nonzero;fill:rgb(100%,100%,100%);fill-opacity:1;" d="M 15.921875 9.410156 C 15.980469 8.304688 16.878906 4.988281 21.84375 4.988281 C 27.78125 4.988281 27.582031 9.757812 27.582031 9.757812 C 27.773438 9.589844 28.027344 9.515625 28.277344 9.554688 C 28.523438 9.589844 28.742188 9.734375 28.867188 9.945312 C 28.941406 10.089844 28.980469 10.25 28.988281 10.414062 C 29.042969 11.046875 28.917969 11.6875 28.632812 12.253906 C 28.5 12.542969 28.304688 12.800781 28.0625 13.003906 C 27.867188 13.164062 27.632812 13.269531 27.382812 13.3125 L 27.265625 13.332031 C 27.210938 13.539062 27.144531 13.714844 27.117188 13.808594 C 26.929688 14.308594 25.960938 15.953125 24.703125 16.730469 C 24.707031 17.109375 24.734375 17.488281 24.78125 17.867188 C 25.011719 18.332031 25.265625 18.789062 25.539062 19.226562 C 25.921875 19.820312 25.339844 22.234375 21.867188 22.234375 C 18.398438 22.234375 16.996094 19.90625 17.835938 19.214844 C 18.617188 18.566406 18.773438 17.828125 18.773438 17.820312 C 18.8125 17.460938 18.835938 17.066406 18.84375 16.746094 C 18.320312 16.425781 17.855469 16.023438 17.46875 15.546875 C 16.945312 14.902344 16.558594 14.152344 16.34375 13.347656 C 16.203125 13.324219 16.121094 13.3125 16.121094 13.3125 C 15.871094 13.269531 15.636719 13.164062 15.441406 13.003906 C 15.199219 12.800781 15.003906 12.542969 14.867188 12.253906 C 14.582031 11.6875 14.460938 11.046875 14.515625 10.414062 C 14.519531 10.25 14.5625 10.089844 14.636719 9.945312 C 14.761719 9.734375 14.980469 9.589844 15.226562 9.554688 C 15.476562 9.515625 15.730469 9.589844 15.921875 9.757812 C 15.914062 9.640625 15.917969 9.527344 15.921875 9.410156 Z M 15.921875 9.410156 "/>
<path style=" stroke:none;fill-rule:nonzero;fill:rgb(47.843137%,45.490196%,45.09804%);fill-opacity:1;" d="M 26.359375 2.839844 C 27.082031 3.15625 27.996094 4.277344 28.378906 5.347656 C 28.925781 6.875 28.859375 8.484375 28.429688 9.59375 C 28.378906 9.574219 28.328125 9.5625 28.277344 9.554688 C 27.921875 9.5 27.535156 9.683594 27.410156 10.007812 C 26.980469 9.136719 26.347656 8.210938 25.582031 7.550781 C 25.125 7.140625 24.578125 6.84375 23.980469 6.695312 C 23.613281 6.585938 23.234375 6.511719 22.851562 6.46875 C 22.09375 6.9375 21.085938 7.566406 20.988281 7.527344 C 20.917969 7.5 20.601562 6.710938 20.59375 6.613281 C 19.164062 7.738281 18.007812 8.503906 16.394531 10.019531 L 16.304688 10.105469 L 15.921875 9.757812 C 15.730469 9.589844 15.476562 9.515625 15.226562 9.554688 C 15.15625 9.5625 15.089844 9.582031 15.027344 9.609375 C 14.578125 7.75 14.6875 6.179688 15.0625 5.074219 C 15.410156 4.058594 16.199219 2.898438 17.191406 2.402344 C 16.847656 2.257812 16.441406 2.089844 16.441406 2.089844 C 17.90625 0.617188 19.828125 0.28125 21.496094 0.332031 C 23.28125 0.386719 24.671875 1.089844 25.507812 2.234375 Z M 26.359375 2.839844 "/>
<path style=" stroke:none;fill-rule:nonzero;fill:rgb(12.941177%,9.019608%,8.235294%);fill-opacity:1;" d="M 27.808594 9.980469 C 27.917969 9.890625 28.0625 9.851562 28.207031 9.867188 C 28.347656 9.882812 28.480469 9.953125 28.570312 10.066406 C 28.65625 10.226562 28.695312 10.410156 28.683594 10.589844 C 28.691406 10.808594 28.675781 11.027344 28.636719 11.242188 C 28.503906 11.980469 28.117188 12.863281 27.296875 13.007812 C 27.128906 13.054688 27.03125 13.226562 27.074219 13.398438 C 27.125 13.5625 27.296875 13.660156 27.464844 13.617188 C 28.640625 13.414062 29.199219 12.09375 29.304688 11.03125 C 29.355469 10.496094 29.335938 9.84375 28.875 9.480469 C 28.421875 9.132812 27.785156 9.152344 27.359375 9.53125 C 27.234375 9.65625 27.234375 9.859375 27.359375 9.980469 C 27.484375 10.101562 27.679688 10.101562 27.808594 9.980469 Z M 27.808594 9.980469 "/>
<path style=" stroke:none;fill-rule:nonzero;fill:rgb(12.941177%,9.019608%,8.235294%);fill-opacity:1;" d="M 27.054688 12.664062 C 27.039062 12.914062 26.992188 13.15625 26.917969 13.394531 C 26.890625 13.484375 26.859375 13.570312 26.832031 13.660156 C 26.820312 13.691406 26.761719 13.835938 26.800781 13.746094 C 26.691406 13.988281 26.5625 14.222656 26.417969 14.445312 C 26.011719 15.117188 25.496094 15.714844 24.890625 16.210938 C 24.5625 16.484375 24.175781 16.679688 23.761719 16.785156 C 23.363281 16.878906 23.53125 17.488281 23.929688 17.398438 C 24.804688 17.195312 25.539062 16.570312 26.117188 15.910156 C 26.609375 15.371094 27.019531 14.761719 27.335938 14.101562 C 27.542969 13.648438 27.664062 13.164062 27.691406 12.664062 C 27.707031 12.257812 27.070312 12.257812 27.054688 12.664062 Z M 27.054688 12.664062 "/>
<path style=" stroke:none;fill-rule:nonzero;fill:rgb(12.941177%,9.019608%,8.235294%);fill-opacity:1;" d="M 16.144531 9.53125 C 15.730469 9.164062 15.113281 9.132812 14.660156 9.457031 C 14.175781 9.816406 14.144531 10.476562 14.199219 11.03125 C 14.300781 12.09375 14.863281 13.414062 16.035156 13.617188 C 16.207031 13.660156 16.375 13.5625 16.425781 13.398438 C 16.472656 13.226562 16.375 13.054688 16.207031 13.007812 C 15.386719 12.863281 15 11.980469 14.863281 11.242188 C 14.828125 11.035156 14.8125 10.828125 14.820312 10.621094 C 14.808594 10.4375 14.84375 10.253906 14.921875 10.085938 C 15.007812 9.964844 15.140625 9.886719 15.285156 9.867188 C 15.433594 9.847656 15.582031 9.890625 15.695312 9.980469 C 15.820312 10.101562 16.019531 10.101562 16.144531 9.980469 C 16.269531 9.855469 16.269531 9.65625 16.144531 9.53125 Z M 16.144531 9.53125 "/>
<path style=" stroke:none;fill-rule:nonzero;fill:rgb(12.941177%,9.019608%,8.235294%);fill-opacity:1;" d="M 15.847656 12.597656 C 16.167969 14.4375 17.171875 16.242188 18.875 17.125 C 19.339844 17.367188 19.847656 17.519531 20.367188 17.570312 C 20.542969 17.570312 20.6875 17.429688 20.6875 17.253906 C 20.683594 17.078125 20.542969 16.9375 20.367188 16.933594 C 19.285156 16.820312 18.375 16.136719 17.695312 15.320312 C 17.007812 14.5 16.644531 13.472656 16.460938 12.429688 C 16.414062 12.261719 16.242188 12.160156 16.070312 12.207031 C 15.90625 12.257812 15.808594 12.429688 15.847656 12.597656 Z M 15.847656 12.597656 "/>
<path style=" stroke:none;fill-rule:nonzero;fill:rgb(12.941177%,9.019608%,8.235294%);fill-opacity:1;" d="M 26.199219 3.113281 C 26.53125 3.28125 26.828125 3.511719 27.066406 3.796875 C 27.375 4.136719 27.636719 4.515625 27.847656 4.925781 C 28.285156 5.816406 28.492188 6.808594 28.449219 7.800781 C 28.4375 8.308594 28.351562 8.8125 28.199219 9.292969 C 28.074219 9.683594 28.6875 9.851562 28.8125 9.460938 C 29.449219 7.398438 29.007812 5.152344 27.636719 3.484375 C 27.335938 3.101562 26.953125 2.785156 26.519531 2.566406 C 26.367188 2.480469 26.175781 2.53125 26.085938 2.679688 C 25.996094 2.832031 26.046875 3.023438 26.199219 3.113281 Z M 26.199219 3.113281 "/>
<path style=" stroke:none;fill-rule:nonzero;fill:rgb(12.941177%,9.019608%,8.235294%);fill-opacity:1;" d="M 17.363281 1.988281 C 16.3125 2.382812 15.527344 3.3125 15.042969 4.300781 C 14.589844 5.277344 14.375 6.351562 14.417969 7.429688 C 14.4375 8.1875 14.535156 8.945312 14.714844 9.683594 C 14.808594 10.078125 15.421875 9.910156 15.328125 9.511719 C 14.855469 7.523438 14.878906 5.234375 16.253906 3.589844 C 16.597656 3.175781 17.019531 2.792969 17.53125 2.601562 C 17.695312 2.550781 17.792969 2.378906 17.753906 2.210938 C 17.703125 2.042969 17.53125 1.941406 17.363281 1.988281 Z M 17.363281 1.988281 "/>
<path style=" stroke:none;fill-rule:nonzero;fill:rgb(12.941177%,9.019608%,8.235294%);fill-opacity:1;" d="M 25.78125 2.070312 C 24.980469 0.984375 23.769531 0.320312 22.441406 0.105469 C 21.0625 -0.121094 19.644531 0.0117188 18.335938 0.496094 C 17.542969 0.800781 16.820312 1.265625 16.21875 1.863281 C 15.925781 2.152344 16.375 2.605469 16.667969 2.316406 C 17.609375 1.402344 18.832031 0.835938 20.136719 0.703125 C 21.355469 0.5625 22.667969 0.625 23.78125 1.1875 C 24.351562 1.472656 24.851562 1.882812 25.234375 2.394531 C 25.324219 2.539062 25.515625 2.589844 25.667969 2.507812 C 25.820312 2.417969 25.871094 2.222656 25.78125 2.070312 Z M 25.78125 2.070312 "/>
<path style=" stroke:none;fill-rule:nonzero;fill:rgb(12.941177%,9.019608%,8.235294%);fill-opacity:1;" d="M 22.945312 6.039062 C 22.34375 6.410156 21.746094 6.804688 21.117188 7.136719 C 21.070312 7.160156 21.023438 7.183594 20.976562 7.207031 C 20.921875 7.238281 20.980469 7.207031 20.984375 7.207031 C 20.984375 7.207031 20.941406 7.21875 20.9375 7.21875 C 21.039062 7.210938 21.203125 7.222656 21.234375 7.335938 C 21.226562 7.320312 21.214844 7.300781 21.207031 7.285156 C 21.179688 7.238281 21.15625 7.1875 21.132812 7.136719 C 21.070312 7.007812 21.042969 6.9375 20.988281 6.800781 C 20.949219 6.714844 20.917969 6.621094 20.898438 6.527344 C 20.863281 6.261719 20.53125 6.261719 20.367188 6.386719 C 18.945312 7.503906 17.492188 8.558594 16.171875 9.796875 C 15.871094 10.078125 16.320312 10.523438 16.621094 10.246094 C 17.941406 9.007812 19.398438 7.953125 20.816406 6.835938 L 20.285156 6.695312 C 20.308594 6.800781 20.34375 6.902344 20.390625 7 C 20.453125 7.164062 20.519531 7.328125 20.59375 7.488281 C 20.640625 7.613281 20.722656 7.722656 20.832031 7.800781 C 20.980469 7.886719 21.132812 7.832031 21.277344 7.765625 C 21.582031 7.617188 21.875 7.453125 22.15625 7.269531 C 22.527344 7.046875 22.898438 6.8125 23.269531 6.585938 C 23.617188 6.371094 23.296875 5.824219 22.949219 6.039062 Z M 22.945312 6.039062 "/>
<path style=" stroke:none;fill-rule:nonzero;fill:rgb(12.941177%,9.019608%,8.235294%);fill-opacity:1;" d="M 23.898438 7.003906 C 24.707031 7.1875 25.367188 7.71875 25.910156 8.324219 C 26.453125 8.941406 26.902344 9.632812 27.238281 10.382812 C 27.328125 10.535156 27.519531 10.585938 27.671875 10.496094 C 27.820312 10.40625 27.871094 10.214844 27.785156 10.0625 C 27.414062 9.25 26.921875 8.496094 26.324219 7.832031 C 25.71875 7.167969 24.957031 6.59375 24.066406 6.390625 C 23.667969 6.300781 23.5 6.910156 23.898438 7.003906 Z M 23.898438 7.003906 "/>
<path style=" stroke:none;fill-rule:nonzero;fill:rgb(12.941177%,9.019608%,8.235294%);fill-opacity:1;" d="M 19.058594 18.269531 C 19.109375 17.765625 19.148438 17.261719 19.164062 16.757812 C 19.164062 16.582031 19.019531 16.441406 18.847656 16.4375 C 18.671875 16.441406 18.53125 16.582031 18.527344 16.757812 C 18.511719 17.261719 18.472656 17.765625 18.425781 18.269531 C 18.425781 18.445312 18.566406 18.585938 18.742188 18.585938 C 18.914062 18.582031 19.054688 18.441406 19.058594 18.269531 Z M 19.058594 18.269531 "/>
<path style=" stroke:none;fill-rule:nonzero;fill:rgb(12.941177%,9.019608%,8.235294%);fill-opacity:1;" d="M 24.382812 16.753906 C 24.394531 17.304688 24.433594 17.855469 24.5 18.402344 C 24.503906 18.578125 24.644531 18.71875 24.816406 18.722656 C 24.972656 18.714844 25.15625 18.582031 25.132812 18.402344 C 25.070312 17.855469 25.03125 17.304688 25.019531 16.753906 C 25.019531 16.578125 24.878906 16.4375 24.703125 16.4375 C 24.527344 16.4375 24.382812 16.578125 24.382812 16.753906 Z M 24.382812 16.753906 "/>
<path style=" stroke:none;fill-rule:nonzero;fill:rgb(12.941177%,9.019608%,8.235294%);fill-opacity:1;" d="M 20.710938 14.964844 C 21.0625 15.144531 21.449219 15.238281 21.847656 15.226562 C 22.257812 15.246094 22.660156 15.125 22.996094 14.886719 C 23.121094 14.761719 23.121094 14.5625 22.996094 14.4375 C 22.871094 14.316406 22.671875 14.316406 22.546875 14.4375 C 22.644531 14.359375 22.574219 14.414062 22.550781 14.429688 C 22.527344 14.445312 22.503906 14.460938 22.480469 14.472656 C 22.46875 14.476562 22.453125 14.484375 22.441406 14.488281 C 22.414062 14.503906 22.394531 14.496094 22.460938 14.484375 C 22.429688 14.492188 22.394531 14.503906 22.363281 14.519531 C 22.277344 14.546875 22.1875 14.566406 22.097656 14.578125 C 22.144531 14.570312 22.105469 14.578125 22.078125 14.582031 C 22.054688 14.582031 22.027344 14.585938 22 14.585938 C 21.9375 14.589844 21.871094 14.59375 21.808594 14.59375 C 21.75 14.59375 21.695312 14.589844 21.636719 14.585938 C 21.613281 14.585938 21.585938 14.582031 21.558594 14.578125 C 21.550781 14.578125 21.457031 14.5625 21.53125 14.578125 C 21.445312 14.5625 21.363281 14.542969 21.277344 14.519531 C 21.242188 14.511719 21.210938 14.496094 21.175781 14.484375 C 21.097656 14.460938 21.226562 14.511719 21.15625 14.480469 C 21.113281 14.457031 21.070312 14.4375 21.03125 14.414062 C 20.878906 14.328125 20.683594 14.378906 20.59375 14.53125 C 20.507812 14.679688 20.558594 14.875 20.710938 14.964844 Z M 20.710938 14.964844 "/>
<path style=" stroke:none;fill-rule:nonzero;fill:rgb(12.941177%,9.019608%,8.235294%);fill-opacity:1;" d="M 21.671875 12.304688 C 21.722656 12.492188 21.765625 12.679688 21.796875 12.871094 L 21.785156 12.789062 C 21.789062 12.8125 21.789062 12.839844 21.785156 12.867188 L 21.796875 12.78125 C 21.796875 12.792969 21.792969 12.804688 21.789062 12.816406 L 21.820312 12.742188 C 21.816406 12.75 21.8125 12.757812 21.808594 12.761719 L 21.859375 12.699219 C 21.851562 12.707031 21.847656 12.710938 21.839844 12.71875 L 21.90625 12.667969 C 21.890625 12.675781 21.875 12.683594 21.859375 12.691406 L 21.9375 12.660156 C 21.910156 12.667969 21.886719 12.675781 21.859375 12.679688 L 21.945312 12.671875 C 21.921875 12.671875 21.898438 12.671875 21.875 12.671875 L 21.957031 12.679688 C 21.929688 12.675781 21.90625 12.671875 21.878906 12.667969 C 21.835938 12.65625 21.792969 12.652344 21.75 12.660156 C 21.710938 12.664062 21.667969 12.675781 21.632812 12.699219 C 21.480469 12.789062 21.429688 12.984375 21.519531 13.132812 C 21.5625 13.207031 21.628906 13.257812 21.710938 13.28125 C 21.773438 13.289062 21.835938 13.304688 21.898438 13.308594 C 21.996094 13.308594 22.09375 13.285156 22.179688 13.238281 C 22.292969 13.1875 22.378906 13.089844 22.410156 12.96875 C 22.429688 12.871094 22.425781 12.773438 22.40625 12.679688 C 22.375 12.496094 22.332031 12.316406 22.285156 12.136719 C 22.261719 12.054688 22.210938 11.988281 22.140625 11.945312 C 22.027344 11.878906 21.886719 11.890625 21.785156 11.96875 C 21.683594 12.046875 21.636719 12.179688 21.671875 12.304688 Z M 21.671875 12.304688 "/>
<path style=" stroke:none;fill-rule:nonzero;fill:rgb(12.941177%,9.019608%,8.235294%);fill-opacity:1;" d="M 18.699219 10.691406 C 18.605469 11 18.667969 11.707031 19.25 11.769531 C 20.019531 11.761719 20.0625 10.90625 19.800781 10.503906 C 19.589844 10.175781 18.964844 10.039062 18.699219 10.691406 Z M 18.699219 10.691406 "/>
<path style=" stroke:none;fill-rule:nonzero;fill:rgb(12.941177%,9.019608%,8.235294%);fill-opacity:1;" d="M 24.871094 10.691406 C 24.964844 11 24.902344 11.707031 24.320312 11.769531 C 23.550781 11.761719 23.507812 10.90625 23.769531 10.503906 C 23.980469 10.175781 24.605469 10.039062 24.871094 10.691406 Z M 24.871094 10.691406 "/>
<path style=" stroke:none;fill-rule:nonzero;fill:rgb(100%,100%,100%);fill-opacity:1;" d="M 19.667969 21.734375 C 18.855469 20.925781 18.320312 19.945312 17.71875 18.964844 C 17.941406 18.519531 18.242188 18.117188 18.601562 17.773438 C 19.335938 18.507812 20.195312 19.105469 21.136719 19.539062 C 21.191406 19.5625 21.25 19.59375 21.265625 19.648438 C 21.273438 19.699219 21.265625 19.75 21.238281 19.789062 C 21.074219 20.027344 20.898438 20.25 20.710938 20.46875 C 20.355469 20.902344 19.90625 21.4375 19.667969 21.734375 Z M 19.667969 21.734375 "/>
<path style=" stroke:none;fill-rule:nonzero;fill:rgb(100%,100%,100%);fill-opacity:1;" d="M 24.265625 21.617188 C 25.078125 20.808594 25.613281 19.828125 26.214844 18.847656 C 25.992188 18.402344 25.691406 18 25.332031 17.65625 C 24.597656 18.390625 23.738281 18.988281 22.796875 19.421875 C 22.742188 19.445312 22.683594 19.476562 22.667969 19.53125 C 22.660156 19.578125 22.671875 19.628906 22.695312 19.671875 C 22.859375 19.90625 23.035156 20.132812 23.222656 20.351562 C 23.578125 20.785156 24.027344 21.320312 24.265625 21.617188 Z M 24.265625 21.617188 "/>
<path style=" stroke:none;fill-rule:nonzero;fill:rgb(12.941177%,9.019608%,8.235294%);fill-opacity:1;" d="M 19.894531 21.507812 C 19.109375 20.722656 18.570312 19.746094 17.992188 18.804688 L 17.992188 19.125 C 18.207031 18.707031 18.488281 18.324219 18.828125 17.996094 L 18.378906 17.996094 C 18.777344 18.394531 19.210938 18.753906 19.675781 19.070312 C 19.898438 19.226562 20.125 19.367188 20.359375 19.5 C 20.472656 19.5625 20.589844 19.625 20.707031 19.683594 C 20.765625 19.714844 20.820312 19.742188 20.878906 19.769531 C 20.914062 19.785156 20.945312 19.800781 20.976562 19.8125 C 21.027344 19.84375 21.03125 19.839844 20.992188 19.808594 L 20.949219 19.648438 C 20.945312 19.621094 20.96875 19.640625 20.941406 19.664062 C 20.921875 19.691406 20.902344 19.714844 20.886719 19.742188 C 20.84375 19.804688 20.796875 19.863281 20.75 19.921875 C 20.59375 20.113281 20.4375 20.304688 20.28125 20.496094 C 20 20.835938 19.71875 21.171875 19.445312 21.507812 C 19.324219 21.636719 19.324219 21.832031 19.445312 21.957031 C 19.570312 22.082031 19.769531 22.082031 19.894531 21.957031 C 20.214844 21.5625 20.546875 21.171875 20.871094 20.773438 C 21.046875 20.558594 21.222656 20.34375 21.390625 20.121094 C 21.523438 19.949219 21.644531 19.75 21.558594 19.523438 C 21.460938 19.269531 21.125 19.1875 20.902344 19.070312 C 20.652344 18.941406 20.402344 18.792969 20.164062 18.636719 C 19.683594 18.320312 19.234375 17.957031 18.828125 17.546875 C 18.703125 17.425781 18.503906 17.425781 18.378906 17.546875 C 18.058594 17.851562 17.785156 18.203125 17.566406 18.585938 C 17.503906 18.679688 17.453125 18.777344 17.414062 18.882812 C 17.371094 19.035156 17.464844 19.15625 17.539062 19.277344 C 17.648438 19.464844 17.761719 19.648438 17.875 19.832031 C 18.332031 20.589844 18.816406 21.332031 19.441406 21.960938 C 19.734375 22.25 20.183594 21.800781 19.894531 21.507812 Z M 19.894531 21.507812 "/>
<path style=" stroke:none;fill-rule:nonzero;fill:rgb(12.941177%,9.019608%,8.235294%);fill-opacity:1;" d="M 24.492188 21.839844 C 25.117188 21.214844 25.601562 20.46875 26.058594 19.714844 C 26.171875 19.53125 26.285156 19.34375 26.394531 19.160156 C 26.480469 19.0625 26.527344 18.9375 26.527344 18.804688 C 26.5 18.695312 26.449219 18.589844 26.382812 18.492188 C 26.160156 18.101562 25.882812 17.742188 25.554688 17.429688 C 25.429688 17.308594 25.230469 17.308594 25.105469 17.429688 C 24.699219 17.839844 24.25 18.203125 23.769531 18.519531 C 23.53125 18.675781 23.285156 18.820312 23.03125 18.953125 C 22.808594 19.070312 22.472656 19.152344 22.378906 19.40625 C 22.292969 19.632812 22.410156 19.832031 22.542969 20.003906 C 22.710938 20.226562 22.886719 20.441406 23.066406 20.65625 C 23.390625 21.054688 23.71875 21.445312 24.039062 21.839844 C 24.164062 21.964844 24.367188 21.964844 24.492188 21.839844 C 24.609375 21.714844 24.609375 21.515625 24.492188 21.390625 C 24.214844 21.050781 23.933594 20.714844 23.65625 20.378906 C 23.496094 20.1875 23.339844 19.996094 23.1875 19.804688 C 23.140625 19.746094 23.09375 19.6875 23.046875 19.625 C 23.03125 19.601562 23.015625 19.582031 23 19.558594 C 22.976562 19.519531 22.988281 19.507812 22.984375 19.53125 L 22.941406 19.691406 C 22.902344 19.722656 22.90625 19.726562 22.957031 19.695312 C 22.988281 19.683594 23.019531 19.667969 23.054688 19.652344 C 23.105469 19.628906 23.152344 19.605469 23.203125 19.578125 C 23.320312 19.519531 23.433594 19.460938 23.550781 19.398438 C 23.792969 19.261719 24.027344 19.113281 24.257812 18.953125 C 24.722656 18.636719 25.15625 18.277344 25.554688 17.878906 L 25.105469 17.878906 C 25.445312 18.207031 25.726562 18.589844 25.941406 19.007812 L 25.941406 18.6875 C 25.363281 19.628906 24.824219 20.605469 24.039062 21.390625 C 23.75 21.683594 24.199219 22.132812 24.492188 21.839844 Z M 24.492188 21.839844 "/>
<path style=" stroke:none;fill-rule:nonzero;fill:rgb(100%,100%,100%);fill-opacity:1;" d="M 28.417969 38.160156 C 28.410156 37.886719 28.273438 37.632812 28.050781 37.476562 C 27.832031 37.332031 27.585938 37.234375 27.328125 37.1875 C 26.621094 37.027344 25.894531 37.03125 25.164062 37.03125 C 24.433594 37.03125 23.707031 37.027344 23 37.1875 C 22.742188 37.234375 22.496094 37.332031 22.277344 37.476562 C 22.0625 37.640625 21.941406 37.894531 21.945312 38.160156 C 21.945312 38.585938 21.945312 39.039062 21.945312 39.398438 C 22.027344 39.792969 22.480469 40.015625 22.882812 40.121094 C 23.625 40.316406 24.410156 40.339844 25.164062 40.339844 C 25.933594 40.339844 26.703125 40.316406 27.445312 40.121094 C 27.871094 40.007812 28.351562 39.769531 28.394531 39.332031 L 28.417969 39.0625 Z M 28.417969 38.160156 "/>
<path style=" stroke:none;fill-rule:nonzero;fill:rgb(12.941177%,9.019608%,8.235294%);fill-opacity:1;" d="M 1.285156 35.128906 C 2.328125 35.128906 3.371094 35.121094 4.414062 35.121094 C 4.824219 35.121094 4.824219 34.484375 4.414062 34.484375 C 3.371094 34.484375 2.328125 34.492188 1.285156 34.492188 C 0.875 34.492188 0.875 35.128906 1.285156 35.128906 Z M 1.285156 35.128906 "/>
<path style=" stroke:none;fill-rule:nonzero;fill:rgb(100%,100%,100%);fill-opacity:1;" d="M 17.460938 43.683594 C 13.761719 43.683594 6.335938 43.644531 2.542969 43.644531 C 2.542969 42.371094 2.609375 37.3125 2.609375 36.238281 C 3.265625 35.464844 4.742188 33.789062 5.09375 33.398438 L 6.390625 33.398438 C 6.390625 33.636719 6.386719 33.996094 6.382812 34.488281 L 16.726562 34.488281 C 16.863281 34.089844 17.003906 33.699219 17.160156 33.296875 L 18.65625 33.296875 C 18.65625 33.597656 18.75 38.261719 18.753906 38.96875 C 18.535156 39.957031 18.054688 41.945312 17.519531 43.679688 Z M 17.460938 43.683594 "/>
<path style=" stroke:none;fill-rule:nonzero;fill:rgb(47.450981%,77.64706%,87.843138%);fill-opacity:1;" d="M 11.78125 38.457031 C 11.78125 38.972656 11.78125 39.441406 11.78125 39.835938 C 11.78125 40.730469 12.347656 41.15625 12.925781 41.15625 C 13.644531 41.15625 14.121094 40.839844 14.121094 40.109375 C 14.121094 40.011719 14.117188 39.390625 14.105469 38.503906 "/>
<path style=" stroke:none;fill-rule:nonzero;fill:rgb(12.941177%,9.019608%,8.235294%);fill-opacity:1;" d="M 17.046875 36.617188 C 17.046875 37.203125 17.046875 37.785156 17.046875 38.371094 C 17.046875 38.546875 17.1875 38.6875 17.363281 38.6875 C 17.539062 38.6875 17.679688 38.546875 17.679688 38.371094 C 17.679688 37.785156 17.679688 37.203125 17.679688 36.617188 C 17.679688 36.441406 17.539062 36.300781 17.363281 36.300781 C 17.1875 36.300781 17.046875 36.441406 17.046875 36.617188 Z M 17.046875 36.617188 "/>
<path style=" stroke:none;fill-rule:nonzero;fill:rgb(12.941177%,9.019608%,8.235294%);fill-opacity:1;" d="M 3.679688 36.28125 C 3.675781 36.675781 3.679688 37.066406 3.683594 37.460938 C 3.683594 37.636719 3.824219 37.777344 4 37.777344 C 7.183594 37.777344 10.363281 37.800781 13.542969 37.8125 C 14.414062 37.8125 15.28125 37.816406 16.148438 37.816406 C 16.324219 37.8125 16.464844 37.671875 16.464844 37.496094 C 16.464844 37.144531 16.464844 36.792969 16.464844 36.4375 C 16.472656 36.273438 16.507812 36.109375 16.574219 35.957031 C 16.632812 35.773438 16.695312 35.589844 16.753906 35.40625 C 16.980469 34.726562 17.207031 34.046875 17.46875 33.382812 L 17.160156 33.613281 L 18.65625 33.613281 L 18.335938 33.296875 C 18.339844 34.351562 18.375 35.402344 18.394531 36.457031 C 18.40625 37.09375 18.417969 37.734375 18.429688 38.371094 C 18.429688 38.554688 18.425781 38.742188 18.4375 38.925781 C 18.4375 38.953125 18.425781 38.996094 18.441406 38.917969 C 18.433594 38.957031 18.421875 38.996094 18.414062 39.035156 C 18.394531 39.128906 18.371094 39.21875 18.351562 39.3125 C 18.300781 39.527344 18.25 39.742188 18.199219 39.957031 C 17.90625 41.179688 17.582031 42.394531 17.210938 43.597656 L 17.519531 43.363281 C 15.644531 43.363281 13.773438 43.359375 11.902344 43.351562 C 9.773438 43.34375 7.648438 43.339844 5.519531 43.332031 C 4.527344 43.328125 3.535156 43.328125 2.542969 43.328125 L 2.859375 43.644531 C 2.863281 41.582031 2.898438 39.519531 2.917969 37.453125 C 2.921875 37.046875 2.929688 36.640625 2.929688 36.238281 L 2.835938 36.460938 C 3.648438 35.5 4.480469 34.558594 5.316406 33.625 C 5.589844 33.320312 5.140625 32.867188 4.867188 33.171875 C 4.34375 33.757812 3.828125 34.347656 3.3125 34.9375 C 3.03125 35.261719 2.746094 35.585938 2.46875 35.917969 C 2.371094 36.003906 2.308594 36.121094 2.292969 36.25 C 2.289062 36.296875 2.292969 36.34375 2.292969 36.390625 C 2.292969 36.507812 2.292969 36.625 2.292969 36.742188 C 2.28125 38.335938 2.257812 39.925781 2.242188 41.519531 C 2.234375 42.226562 2.226562 42.9375 2.226562 43.644531 C 2.226562 43.820312 2.367188 43.960938 2.542969 43.964844 C 4.449219 43.964844 6.351562 43.96875 8.253906 43.976562 C 10.375 43.984375 12.492188 43.988281 14.609375 43.996094 C 15.578125 44 16.550781 44 17.519531 44 C 17.660156 43.996094 17.785156 43.902344 17.824219 43.765625 C 18.164062 42.675781 18.457031 41.570312 18.730469 40.460938 C 18.835938 40.035156 18.9375 39.613281 19.03125 39.1875 C 19.070312 38.984375 19.082031 38.773438 19.066406 38.570312 C 19.046875 37.261719 19.019531 35.953125 18.996094 34.644531 C 18.988281 34.195312 18.976562 33.746094 18.972656 33.296875 C 18.972656 33.121094 18.832031 32.980469 18.65625 32.980469 L 17.160156 32.980469 C 17.019531 32.984375 16.898438 33.078125 16.855469 33.210938 C 16.585938 33.898438 16.351562 34.59375 16.125 35.292969 C 16.007812 35.644531 15.828125 36.015625 15.828125 36.386719 C 15.828125 36.757812 15.828125 37.128906 15.832031 37.496094 L 16.148438 37.179688 C 12.972656 37.179688 9.796875 37.160156 6.621094 37.148438 C 5.746094 37.144531 4.875 37.144531 4 37.144531 L 4.316406 37.460938 C 4.316406 37.066406 4.3125 36.675781 4.3125 36.28125 C 4.316406 35.871094 3.679688 35.871094 3.679688 36.28125 Z M 3.679688 36.28125 "/>
<path style=" stroke:none;fill-rule:nonzero;fill:rgb(12.941177%,9.019608%,8.235294%);fill-opacity:1;" d="M 14.128906 34.832031 C 14.914062 34.835938 15.699219 34.835938 16.484375 34.839844 C 16.894531 34.839844 16.894531 34.207031 16.484375 34.203125 C 15.699219 34.203125 14.914062 34.199219 14.128906 34.195312 C 13.71875 34.195312 13.71875 34.832031 14.128906 34.832031 Z M 14.128906 34.832031 "/>
<path style=" stroke:none;fill-rule:nonzero;fill:rgb(12.941177%,9.019608%,8.235294%);fill-opacity:1;" d="M 10.015625 34.8125 C 10.582031 34.816406 11.148438 34.820312 11.714844 34.820312 C 11.890625 34.820312 12.03125 34.679688 12.03125 34.503906 C 12.03125 34.328125 11.890625 34.1875 11.714844 34.1875 C 11.148438 34.183594 10.582031 34.179688 10.015625 34.179688 C 9.839844 34.179688 9.699219 34.320312 9.699219 34.496094 C 9.699219 34.671875 9.839844 34.8125 10.015625 34.8125 Z M 10.015625 34.8125 "/>
<path style=" stroke:none;fill-rule:nonzero;fill:rgb(47.450981%,77.64706%,87.843138%);fill-opacity:1;" d="M 7.695312 38.457031 C 7.695312 38.972656 7.695312 39.441406 7.695312 39.835938 C 7.695312 40.730469 8.261719 41.15625 8.84375 41.15625 C 9.5625 41.15625 10.039062 40.839844 10.039062 40.109375 C 10.039062 40.011719 10.03125 39.390625 10.023438 38.503906 "/>
<path style=" stroke:none;fill-rule:nonzero;fill:rgb(12.941177%,9.019608%,8.235294%);fill-opacity:1;" d="M 11.460938 38.457031 C 11.460938 38.796875 11.460938 39.132812 11.460938 39.46875 C 11.445312 39.769531 11.46875 40.070312 11.527344 40.367188 C 11.648438 40.851562 12.003906 41.238281 12.472656 41.402344 C 12.941406 41.550781 13.449219 41.492188 13.875 41.242188 C 14.277344 40.980469 14.441406 40.542969 14.441406 40.074219 C 14.4375 39.550781 14.429688 39.027344 14.421875 38.5 C 14.417969 38.09375 13.78125 38.089844 13.789062 38.5 C 13.792969 38.972656 13.796875 39.441406 13.804688 39.910156 C 13.808594 40.023438 13.804688 40.140625 13.796875 40.253906 C 13.800781 40.21875 13.785156 40.320312 13.78125 40.339844 C 13.777344 40.359375 13.769531 40.378906 13.765625 40.402344 C 13.765625 40.394531 13.730469 40.492188 13.75 40.449219 C 13.765625 40.410156 13.726562 40.496094 13.726562 40.492188 C 13.71875 40.511719 13.707031 40.527344 13.699219 40.542969 C 13.6875 40.5625 13.675781 40.578125 13.664062 40.59375 C 13.703125 40.539062 13.648438 40.609375 13.644531 40.613281 C 13.628906 40.628906 13.554688 40.695312 13.601562 40.660156 C 13.566406 40.683594 13.527344 40.707031 13.492188 40.730469 C 13.472656 40.738281 13.457031 40.746094 13.4375 40.753906 C 13.386719 40.777344 13.507812 40.730469 13.414062 40.761719 C 13.363281 40.78125 13.3125 40.796875 13.261719 40.808594 C 13.1875 40.828125 13.113281 40.835938 13.039062 40.835938 C 12.988281 40.839844 12.933594 40.839844 12.882812 40.839844 C 12.859375 40.839844 12.835938 40.835938 12.8125 40.835938 C 12.859375 40.839844 12.820312 40.835938 12.796875 40.832031 C 12.753906 40.824219 12.710938 40.8125 12.667969 40.800781 C 12.648438 40.792969 12.554688 40.753906 12.609375 40.78125 C 12.570312 40.761719 12.53125 40.738281 12.496094 40.71875 C 12.472656 40.703125 12.453125 40.691406 12.433594 40.675781 C 12.46875 40.703125 12.429688 40.671875 12.414062 40.660156 C 12.289062 40.550781 12.199219 40.410156 12.15625 40.25 C 12.097656 39.996094 12.078125 39.730469 12.097656 39.46875 C 12.097656 39.132812 12.097656 38.796875 12.097656 38.457031 C 12.097656 38.050781 11.464844 38.046875 11.464844 38.457031 Z M 11.460938 38.457031 "/>
<path style=" stroke:none;fill-rule:nonzero;fill:rgb(12.941177%,9.019608%,8.235294%);fill-opacity:1;" d="M 7.378906 38.457031 C 7.378906 38.796875 7.378906 39.132812 7.378906 39.46875 C 7.363281 39.769531 7.382812 40.070312 7.445312 40.367188 C 7.5625 40.851562 7.917969 41.238281 8.390625 41.402344 C 8.859375 41.550781 9.367188 41.492188 9.789062 41.242188 C 10.191406 40.980469 10.355469 40.542969 10.355469 40.074219 C 10.355469 39.550781 10.347656 39.027344 10.339844 38.5 C 10.335938 38.09375 9.699219 38.089844 9.703125 38.5 C 9.710938 38.972656 9.714844 39.441406 9.71875 39.910156 C 9.722656 40.023438 9.722656 40.140625 9.714844 40.253906 C 9.71875 40.21875 9.703125 40.320312 9.699219 40.339844 C 9.691406 40.359375 9.6875 40.378906 9.679688 40.402344 C 9.683594 40.394531 9.648438 40.492188 9.664062 40.449219 C 9.683594 40.410156 9.640625 40.496094 9.644531 40.492188 C 9.632812 40.511719 9.625 40.527344 9.613281 40.542969 C 9.605469 40.5625 9.59375 40.578125 9.582031 40.59375 C 9.621094 40.539062 9.5625 40.609375 9.558594 40.613281 C 9.546875 40.628906 9.46875 40.695312 9.515625 40.660156 C 9.480469 40.683594 9.445312 40.707031 9.40625 40.730469 C 9.390625 40.738281 9.371094 40.746094 9.355469 40.753906 C 9.304688 40.777344 9.421875 40.730469 9.332031 40.761719 C 9.28125 40.78125 9.230469 40.796875 9.179688 40.808594 C 9.105469 40.828125 9.03125 40.835938 8.953125 40.835938 C 8.902344 40.839844 8.851562 40.839844 8.800781 40.839844 C 8.777344 40.839844 8.75 40.835938 8.726562 40.835938 C 8.773438 40.839844 8.738281 40.835938 8.710938 40.832031 C 8.667969 40.824219 8.628906 40.8125 8.585938 40.800781 C 8.566406 40.792969 8.472656 40.753906 8.527344 40.78125 C 8.488281 40.761719 8.449219 40.738281 8.410156 40.71875 C 8.390625 40.703125 8.371094 40.691406 8.347656 40.675781 C 8.386719 40.703125 8.347656 40.671875 8.332031 40.660156 C 8.207031 40.550781 8.117188 40.410156 8.074219 40.25 C 8.015625 39.996094 7.996094 39.730469 8.015625 39.46875 C 8.015625 39.132812 8.015625 38.796875 8.015625 38.457031 C 8.015625 38.050781 7.378906 38.046875 7.378906 38.457031 Z M 7.378906 38.457031 "/>
<path style=" stroke:none;fill-rule:nonzero;fill:rgb(12.941177%,9.019608%,8.235294%);fill-opacity:1;" d="M 25.164062 36.714844 C 24.578125 36.703125 23.988281 36.730469 23.40625 36.796875 C 22.886719 36.867188 22.273438 36.976562 21.90625 37.386719 C 21.546875 37.757812 21.53125 38.339844 21.867188 38.730469 C 22.179688 39.089844 22.683594 39.230469 23.132812 39.320312 C 23.710938 39.421875 24.300781 39.472656 24.886719 39.46875 C 25.480469 39.488281 26.074219 39.464844 26.664062 39.402344 C 27.164062 39.339844 27.710938 39.257812 28.148438 38.988281 C 28.5625 38.730469 28.832031 38.265625 28.65625 37.777344 C 28.4375 37.160156 27.78125 36.945312 27.191406 36.839844 C 26.523438 36.734375 25.84375 36.695312 25.164062 36.714844 C 24.753906 36.714844 24.753906 37.351562 25.164062 37.351562 C 25.675781 37.339844 26.1875 37.359375 26.699219 37.402344 C 27.082031 37.445312 27.601562 37.5 27.902344 37.765625 C 28.140625 37.972656 28.117188 38.238281 27.867188 38.414062 C 27.546875 38.636719 27.113281 38.703125 26.738281 38.753906 C 26.257812 38.816406 25.773438 38.84375 25.292969 38.835938 C 24.816406 38.84375 24.339844 38.828125 23.863281 38.785156 C 23.527344 38.753906 21.886719 38.570312 22.316406 37.890625 C 22.546875 37.523438 23.164062 37.460938 23.550781 37.414062 C 24.085938 37.359375 24.625 37.335938 25.164062 37.351562 C 25.574219 37.351562 25.574219 36.714844 25.164062 36.714844 Z M 25.164062 36.714844 "/>
<path style=" stroke:none;fill-rule:nonzero;fill:rgb(12.941177%,9.019608%,8.235294%);fill-opacity:1;" d="M 21.628906 38.160156 C 21.628906 38.527344 21.628906 38.898438 21.628906 39.265625 C 21.625 39.582031 21.773438 39.878906 22.03125 40.066406 C 22.566406 40.484375 23.332031 40.566406 23.988281 40.617188 C 24.75 40.679688 25.519531 40.683594 26.285156 40.625 C 26.933594 40.574219 27.714844 40.503906 28.257812 40.097656 C 28.519531 39.914062 28.683594 39.628906 28.710938 39.3125 C 28.742188 38.929688 28.75 38.546875 28.734375 38.160156 C 28.734375 37.75 28.101562 37.75 28.101562 38.160156 C 28.101562 38.480469 28.117188 38.804688 28.09375 39.121094 C 28.082031 39.292969 28.074219 39.421875 27.9375 39.542969 C 27.769531 39.675781 27.574219 39.769531 27.359375 39.816406 C 27.050781 39.898438 26.730469 39.953125 26.410156 39.980469 C 25.75 40.03125 25.085938 40.042969 24.421875 40.011719 C 23.84375 39.988281 23.1875 39.953125 22.652344 39.707031 C 22.539062 39.660156 22.4375 39.589844 22.351562 39.503906 C 22.285156 39.433594 22.25 39.335938 22.265625 39.238281 C 22.265625 38.878906 22.265625 38.519531 22.265625 38.160156 C 22.265625 37.75 21.628906 37.75 21.628906 38.160156 Z M 21.628906 38.160156 "/>
<path style=" stroke:none;fill-rule:nonzero;fill:rgb(12.941177%,9.019608%,8.235294%);fill-opacity:1;" d="M 4.265625 42.917969 C 4.671875 42.917969 4.671875 42.28125 4.265625 42.28125 C 3.855469 42.28125 3.855469 42.917969 4.265625 42.917969 Z M 4.265625 42.917969 "/>
<path style=" stroke:none;fill-rule:nonzero;fill:rgb(12.941177%,9.019608%,8.235294%);fill-opacity:1;" d="M 2.542969 42.917969 C 2.953125 42.917969 2.953125 42.28125 2.542969 42.28125 C 2.132812 42.28125 2.132812 42.917969 2.542969 42.917969 Z M 2.542969 42.917969 "/>
<path style=" stroke:none;fill-rule:nonzero;fill:rgb(12.941177%,9.019608%,8.235294%);fill-opacity:1;" d="M 5.09375 33.714844 L 6.390625 33.714844 L 6.074219 33.398438 C 6.074219 33.761719 6.070312 34.125 6.066406 34.488281 C 6.066406 34.664062 6.207031 34.804688 6.382812 34.804688 C 6.816406 34.804688 7.246094 34.804688 7.675781 34.808594 C 8.085938 34.808594 8.085938 34.171875 7.675781 34.171875 C 7.246094 34.171875 6.816406 34.171875 6.382812 34.171875 L 6.699219 34.488281 C 6.703125 34.125 6.707031 33.761719 6.707031 33.398438 C 6.707031 33.222656 6.566406 33.082031 6.390625 33.082031 L 5.09375 33.082031 C 4.683594 33.082031 4.683594 33.714844 5.09375 33.714844 Z M 5.09375 33.714844 "/>
<path style=" stroke:none;fill-rule:nonzero;fill:rgb(12.941177%,9.019608%,8.235294%);fill-opacity:1;" d="M 3.691406 38.4375 C 3.699219 39.824219 3.722656 41.214844 3.675781 42.601562 C 3.675781 42.773438 3.820312 42.917969 3.992188 42.917969 C 7.1875 42.917969 10.378906 42.941406 13.570312 42.949219 C 14.4375 42.953125 15.300781 42.953125 16.167969 42.953125 C 16.339844 42.953125 16.484375 42.8125 16.484375 42.636719 C 16.484375 41.242188 16.476562 39.851562 16.46875 38.457031 C 16.46875 38.285156 16.328125 38.144531 16.152344 38.140625 C 12.980469 38.140625 9.8125 38.117188 6.640625 38.109375 C 5.765625 38.105469 4.886719 38.105469 4.007812 38.105469 C 3.832031 38.105469 3.691406 38.246094 3.691406 38.421875 L 3.691406 38.4375 C 3.695312 38.847656 4.328125 38.847656 4.328125 38.4375 L 4.328125 38.421875 L 4.007812 38.738281 C 7.183594 38.738281 10.359375 38.761719 13.535156 38.773438 C 14.40625 38.773438 15.28125 38.777344 16.152344 38.777344 L 15.835938 38.457031 C 15.839844 39.851562 15.847656 41.242188 15.847656 42.636719 L 16.167969 42.320312 C 12.976562 42.320312 9.78125 42.296875 6.589844 42.285156 C 5.726562 42.285156 4.859375 42.28125 3.992188 42.28125 L 4.3125 42.601562 C 4.359375 41.214844 4.335938 39.824219 4.328125 38.4375 C 4.324219 38.027344 3.6875 38.027344 3.691406 38.4375 Z M 3.691406 38.4375 "/>
<path style=" stroke:none;fill-rule:nonzero;fill:rgb(12.941177%,9.019608%,8.235294%);fill-opacity:1;" d="M 20.871094 35.066406 C 22.230469 35.0625 23.589844 35.058594 24.953125 35.058594 C 26.53125 35.054688 28.109375 35.054688 29.6875 35.050781 C 31.304688 35.050781 32.917969 35.046875 34.535156 35.046875 C 36.003906 35.042969 37.476562 35.042969 38.949219 35.042969 L 42.382812 35.039062 L 42.714844 35.039062 C 43.125 35.039062 43.125 34.402344 42.714844 34.402344 L 39.4375 34.40625 L 35.117188 34.410156 C 33.511719 34.410156 31.902344 34.414062 30.296875 34.414062 C 28.703125 34.417969 27.109375 34.417969 25.515625 34.421875 C 24.121094 34.421875 22.722656 34.425781 21.324219 34.429688 L 20.871094 34.429688 C 20.460938 34.429688 20.460938 35.066406 20.871094 35.066406 Z M 20.871094 35.066406 "/>
<path style=" stroke:none;fill-rule:nonzero;fill:rgb(12.941177%,9.019608%,8.235294%);fill-opacity:1;" d="M 18.800781 35.070312 C 19.488281 35.070312 20.179688 35.066406 20.871094 35.066406 C 21.046875 35.066406 21.1875 34.921875 21.1875 34.746094 C 21.1875 34.570312 21.046875 34.429688 20.871094 34.429688 C 20.179688 34.429688 19.488281 34.433594 18.800781 34.433594 C 18.625 34.433594 18.480469 34.578125 18.480469 34.753906 C 18.480469 34.929688 18.625 35.070312 18.800781 35.070312 Z M 18.800781 35.070312 "/>
<path style=" stroke:none;fill-rule:nonzero;fill:rgb(12.941177%,9.019608%,8.235294%);fill-opacity:1;" d="M 16.078125 18.875 C 15.074219 19.257812 14.082031 19.671875 13.105469 20.117188 C 12.265625 20.5 11.296875 20.867188 10.6875 21.59375 C 10.214844 22.15625 9.941406 22.878906 9.710938 23.570312 C 9.457031 24.34375 9.246094 25.136719 9.046875 25.929688 C 8.757812 27.078125 8.503906 28.234375 8.28125 29.398438 C 8.238281 29.566406 8.335938 29.738281 8.503906 29.789062 C 8.671875 29.832031 8.84375 29.734375 8.894531 29.566406 C 9.230469 27.722656 9.671875 25.898438 10.210938 24.101562 C 10.296875 23.8125 10.390625 23.523438 10.5 23.242188 C 10.515625 23.199219 10.535156 23.15625 10.550781 23.113281 C 10.585938 23.03125 10.523438 23.171875 10.558594 23.09375 C 10.566406 23.070312 10.578125 23.050781 10.585938 23.027344 C 10.6875 22.796875 10.800781 22.574219 10.925781 22.355469 C 11.390625 21.566406 12.257812 21.207031 13.050781 20.835938 C 14.097656 20.347656 15.164062 19.898438 16.246094 19.484375 C 16.414062 19.433594 16.507812 19.261719 16.46875 19.09375 C 16.421875 18.925781 16.246094 18.828125 16.078125 18.875 Z M 16.078125 18.875 "/>
<path style=" stroke:none;fill-rule:nonzero;fill:rgb(100%,100%,100%);fill-opacity:1;" d="M 10.015625 31.335938 L 10.015625 35.957031 C 9.875 36.183594 9.578125 36.261719 9.308594 36.296875 C 9.03125 36.339844 8.75 36.339844 8.472656 36.292969 C 8.179688 36.246094 7.914062 36.09375 7.71875 35.867188 C 7.71875 33.992188 7.71875 32.128906 7.71875 31.347656 "/>
<path style=" stroke:none;fill-rule:nonzero;fill:rgb(100%,100%,100%);fill-opacity:1;" d="M 14.097656 31.335938 L 14.097656 35.957031 C 13.957031 36.183594 13.660156 36.261719 13.394531 36.296875 C 13.117188 36.339844 12.835938 36.339844 12.558594 36.292969 C 12.261719 36.246094 11.996094 36.09375 11.804688 35.867188 C 11.800781 33.992188 11.800781 32.128906 11.800781 31.347656 "/>
<path style=" stroke:none;fill-rule:nonzero;fill:rgb(12.941177%,9.019608%,8.235294%);fill-opacity:1;" d="M 9.699219 31.335938 L 9.699219 35.957031 L 9.742188 35.796875 C 9.585938 36.019531 9.097656 36.011719 8.859375 36.011719 C 8.511719 36.011719 8.175781 35.917969 7.945312 35.640625 L 8.039062 35.867188 C 8.035156 34.359375 8.035156 32.855469 8.035156 31.347656 C 8.035156 30.9375 7.398438 30.9375 7.398438 31.347656 C 7.398438 32.097656 7.402344 32.851562 7.402344 33.601562 C 7.402344 34.117188 7.402344 34.628906 7.402344 35.140625 L 7.402344 35.535156 C 7.386719 35.675781 7.390625 35.8125 7.414062 35.953125 C 7.472656 36.175781 7.769531 36.363281 7.964844 36.457031 C 8.414062 36.671875 8.910156 36.671875 9.394531 36.605469 C 9.597656 36.582031 9.796875 36.519531 9.976562 36.421875 C 10.066406 36.367188 10.144531 36.300781 10.214844 36.21875 C 10.300781 36.113281 10.34375 35.976562 10.332031 35.835938 L 10.332031 31.335938 C 10.332031 30.929688 9.695312 30.925781 9.695312 31.335938 Z M 9.699219 31.335938 "/>
<path style=" stroke:none;fill-rule:nonzero;fill:rgb(12.941177%,9.019608%,8.235294%);fill-opacity:1;" d="M 13.78125 31.335938 L 13.78125 35.957031 L 13.824219 35.796875 C 13.671875 36.019531 13.179688 36.011719 12.945312 36.011719 C 12.59375 36.011719 12.257812 35.917969 12.027344 35.640625 L 12.121094 35.867188 C 12.121094 34.359375 12.121094 32.855469 12.121094 31.347656 C 12.121094 30.9375 11.484375 30.9375 11.484375 31.347656 C 11.484375 32.097656 11.484375 32.851562 11.484375 33.601562 C 11.484375 34.117188 11.484375 34.628906 11.484375 35.140625 L 11.484375 35.535156 C 11.472656 35.675781 11.476562 35.8125 11.496094 35.953125 C 11.558594 36.175781 11.855469 36.363281 12.050781 36.457031 C 12.5 36.671875 12.992188 36.671875 13.476562 36.605469 C 13.683594 36.582031 13.878906 36.519531 14.058594 36.421875 C 14.148438 36.367188 14.230469 36.300781 14.296875 36.21875 C 14.386719 36.113281 14.429688 35.976562 14.417969 35.835938 L 14.417969 31.335938 C 14.417969 30.929688 13.78125 30.925781 13.78125 31.335938 Z M 13.78125 31.335938 "/>
<path style=" stroke:none;fill-rule:nonzero;fill:rgb(100%,100%,100%);fill-opacity:1;" d="M 8.824219 30.792969 C 8.191406 30.792969 7.71875 30.957031 7.71875 31.347656 C 7.71875 31.75 8.101562 31.871094 8.828125 31.871094 C 9.621094 31.871094 10.015625 31.757812 10.015625 31.335938 C 10.015625 30.945312 9.457031 30.792969 8.824219 30.792969 Z M 8.824219 30.792969 "/>
<path style=" stroke:none;fill-rule:nonzero;fill:rgb(100%,100%,100%);fill-opacity:1;" d="M 12.90625 30.792969 C 12.273438 30.792969 11.800781 30.957031 11.800781 31.347656 C 11.800781 31.75 12.183594 31.871094 12.914062 31.871094 C 13.703125 31.871094 14.097656 31.757812 14.097656 31.335938 C 14.097656 30.945312 13.539062 30.792969 12.90625 30.792969 Z M 12.90625 30.792969 "/>
<path style=" stroke:none;fill-rule:nonzero;fill:rgb(12.941177%,9.019608%,8.235294%);fill-opacity:1;" d="M 8.824219 30.476562 C 8.355469 30.476562 7.699219 30.546875 7.472656 31.035156 C 7.371094 31.257812 7.378906 31.515625 7.5 31.734375 C 7.617188 31.917969 7.804688 32.050781 8.015625 32.101562 C 8.269531 32.167969 8.53125 32.195312 8.792969 32.1875 C 9.066406 32.195312 9.339844 32.175781 9.609375 32.125 C 9.8125 32.09375 9.996094 31.996094 10.144531 31.851562 C 10.300781 31.675781 10.367188 31.4375 10.320312 31.207031 C 10.203125 30.5625 9.34375 30.476562 8.824219 30.476562 C 8.648438 30.476562 8.507812 30.617188 8.507812 30.792969 C 8.507812 30.96875 8.648438 31.109375 8.824219 31.109375 C 9.027344 31.101562 9.230469 31.125 9.429688 31.175781 C 9.472656 31.191406 9.515625 31.203125 9.558594 31.21875 C 9.503906 31.199219 9.59375 31.234375 9.609375 31.246094 C 9.628906 31.257812 9.644531 31.269531 9.664062 31.28125 C 9.703125 31.304688 9.617188 31.226562 9.667969 31.28125 C 9.675781 31.292969 9.6875 31.304688 9.699219 31.316406 C 9.664062 31.285156 9.675781 31.292969 9.699219 31.324219 C 9.707031 31.335938 9.742188 31.371094 9.691406 31.308594 C 9.691406 31.308594 9.703125 31.351562 9.703125 31.351562 C 9.683594 31.347656 9.707031 31.28125 9.699219 31.347656 C 9.695312 31.359375 9.695312 31.375 9.695312 31.386719 C 9.699219 31.425781 9.722656 31.316406 9.699219 31.371094 C 9.695312 31.382812 9.691406 31.394531 9.6875 31.40625 C 9.683594 31.464844 9.695312 31.371094 9.699219 31.378906 C 9.703125 31.386719 9.675781 31.421875 9.675781 31.425781 C 9.652344 31.476562 9.691406 31.394531 9.695312 31.402344 C 9.695312 31.40625 9.667969 31.429688 9.664062 31.433594 C 9.640625 31.457031 9.613281 31.457031 9.675781 31.425781 C 9.664062 31.429688 9.65625 31.441406 9.644531 31.445312 C 9.609375 31.460938 9.5625 31.480469 9.625 31.460938 C 9.585938 31.472656 9.542969 31.488281 9.503906 31.5 C 9.464844 31.507812 9.425781 31.515625 9.386719 31.523438 C 9.367188 31.527344 9.347656 31.527344 9.332031 31.53125 C 9.390625 31.523438 9.335938 31.53125 9.324219 31.53125 C 9.210938 31.542969 9.097656 31.550781 8.984375 31.550781 C 8.875 31.554688 8.765625 31.554688 8.660156 31.550781 C 8.605469 31.550781 8.554688 31.546875 8.5 31.542969 C 8.476562 31.542969 8.457031 31.539062 8.433594 31.539062 C 8.429688 31.539062 8.328125 31.523438 8.394531 31.535156 C 8.316406 31.523438 8.238281 31.507812 8.160156 31.484375 C 8.144531 31.476562 8.132812 31.472656 8.117188 31.46875 C 8.179688 31.484375 8.148438 31.484375 8.132812 31.472656 C 8.101562 31.453125 8.074219 31.4375 8.042969 31.421875 C 8.109375 31.464844 8.074219 31.445312 8.058594 31.425781 C 8.035156 31.40625 8.03125 31.378906 8.066406 31.441406 C 8.054688 31.421875 8.042969 31.398438 8.03125 31.378906 C 8.089844 31.46875 8.050781 31.410156 8.042969 31.402344 C 8.039062 31.402344 8.023438 31.328125 8.039062 31.390625 C 8.046875 31.4375 8.039062 31.394531 8.039062 31.378906 C 8.039062 31.359375 8.039062 31.335938 8.039062 31.3125 C 8.03125 31.269531 8.019531 31.386719 8.039062 31.320312 C 8.054688 31.261719 8.003906 31.371094 8.039062 31.316406 C 8.046875 31.304688 8.054688 31.289062 8.058594 31.277344 C 8.039062 31.320312 8.035156 31.308594 8.066406 31.277344 C 8.078125 31.265625 8.089844 31.257812 8.101562 31.246094 C 8.050781 31.296875 8.09375 31.253906 8.113281 31.238281 C 8.136719 31.226562 8.238281 31.183594 8.179688 31.203125 C 8.386719 31.132812 8.605469 31.101562 8.820312 31.109375 C 8.996094 31.109375 9.140625 30.96875 9.140625 30.792969 C 9.140625 30.617188 8.996094 30.476562 8.820312 30.476562 Z M 8.824219 30.476562 "/>
<path style=" stroke:none;fill-rule:nonzero;fill:rgb(12.941177%,9.019608%,8.235294%);fill-opacity:1;" d="M 12.90625 30.476562 C 12.4375 30.476562 11.78125 30.546875 11.554688 31.035156 C 11.453125 31.257812 11.460938 31.515625 11.582031 31.734375 C 11.699219 31.917969 11.886719 32.050781 12.097656 32.101562 C 12.351562 32.167969 12.613281 32.195312 12.875 32.1875 C 13.148438 32.195312 13.421875 32.175781 13.691406 32.125 C 13.894531 32.09375 14.082031 31.996094 14.226562 31.851562 C 14.382812 31.675781 14.449219 31.4375 14.402344 31.207031 C 14.285156 30.5625 13.425781 30.476562 12.90625 30.476562 C 12.730469 30.476562 12.589844 30.617188 12.589844 30.792969 C 12.589844 30.96875 12.730469 31.109375 12.90625 31.109375 C 13.109375 31.101562 13.316406 31.125 13.511719 31.175781 C 13.558594 31.191406 13.601562 31.203125 13.644531 31.21875 C 13.585938 31.199219 13.675781 31.234375 13.691406 31.246094 C 13.710938 31.257812 13.730469 31.269531 13.746094 31.28125 C 13.785156 31.304688 13.699219 31.226562 13.75 31.28125 C 13.757812 31.292969 13.769531 31.304688 13.78125 31.316406 C 13.746094 31.285156 13.757812 31.292969 13.78125 31.324219 C 13.792969 31.335938 13.824219 31.371094 13.777344 31.308594 C 13.773438 31.308594 13.785156 31.351562 13.785156 31.351562 C 13.765625 31.347656 13.789062 31.28125 13.78125 31.347656 C 13.78125 31.359375 13.777344 31.375 13.78125 31.386719 C 13.785156 31.425781 13.804688 31.316406 13.78125 31.371094 C 13.777344 31.382812 13.773438 31.394531 13.769531 31.40625 C 13.765625 31.464844 13.777344 31.371094 13.785156 31.378906 C 13.785156 31.386719 13.761719 31.421875 13.757812 31.425781 C 13.734375 31.476562 13.773438 31.394531 13.777344 31.402344 C 13.777344 31.40625 13.75 31.429688 13.746094 31.433594 C 13.722656 31.457031 13.699219 31.457031 13.757812 31.425781 C 13.746094 31.429688 13.738281 31.441406 13.726562 31.445312 C 13.695312 31.460938 13.644531 31.480469 13.707031 31.460938 C 13.667969 31.472656 13.628906 31.488281 13.585938 31.5 C 13.546875 31.507812 13.507812 31.515625 13.46875 31.523438 C 13.449219 31.527344 13.433594 31.527344 13.414062 31.53125 C 13.472656 31.523438 13.421875 31.53125 13.410156 31.53125 C 13.296875 31.542969 13.183594 31.550781 13.070312 31.550781 C 12.960938 31.554688 12.851562 31.554688 12.742188 31.550781 C 12.6875 31.550781 12.636719 31.546875 12.582031 31.542969 C 12.5625 31.542969 12.539062 31.539062 12.515625 31.539062 C 12.511719 31.539062 12.410156 31.523438 12.480469 31.535156 C 12.398438 31.523438 12.320312 31.507812 12.242188 31.484375 C 12.230469 31.476562 12.214844 31.472656 12.199219 31.46875 C 12.265625 31.484375 12.230469 31.484375 12.214844 31.472656 C 12.183594 31.453125 12.15625 31.4375 12.125 31.421875 C 12.191406 31.464844 12.160156 31.445312 12.140625 31.425781 C 12.121094 31.40625 12.113281 31.378906 12.148438 31.441406 C 12.136719 31.421875 12.125 31.398438 12.113281 31.378906 C 12.171875 31.46875 12.132812 31.410156 12.125 31.402344 C 12.125 31.402344 12.105469 31.328125 12.121094 31.390625 C 12.132812 31.4375 12.121094 31.394531 12.121094 31.378906 C 12.121094 31.359375 12.121094 31.335938 12.121094 31.3125 C 12.113281 31.269531 12.101562 31.386719 12.121094 31.320312 C 12.136719 31.261719 12.085938 31.371094 12.121094 31.316406 C 12.128906 31.304688 12.136719 31.289062 12.144531 31.277344 C 12.121094 31.320312 12.117188 31.308594 12.148438 31.277344 C 12.160156 31.265625 12.171875 31.257812 12.183594 31.246094 C 12.132812 31.296875 12.175781 31.253906 12.195312 31.238281 C 12.21875 31.226562 12.324219 31.183594 12.261719 31.203125 C 12.46875 31.132812 12.6875 31.101562 12.90625 31.109375 C 13.082031 31.109375 13.222656 30.96875 13.222656 30.792969 C 13.222656 30.617188 13.082031 30.476562 12.90625 30.476562 Z M 12.90625 30.476562 "/>
<path style=" stroke:none;fill-rule:nonzero;fill:rgb(100%,100%,100%);fill-opacity:1;" d="M 19.085938 32.84375 C 18.59375 27.742188 18.363281 22.617188 18.390625 17.488281 C 16.84375 18.53125 15.242188 19.9375 14.40625 21.566406 C 14.308594 21.761719 14.359375 21.996094 14.53125 22.132812 C 14.996094 22.503906 15.652344 22.957031 15.941406 23.214844 C 15.4375 23.632812 14.796875 24.128906 14.699219 24.445312 C 14.640625 24.628906 16.566406 29.996094 16.898438 31 L 17.609375 32.777344 Z M 19.085938 32.84375 "/>
<path style=" stroke:none;fill-rule:nonzero;fill:rgb(100%,100%,100%);fill-opacity:1;" d="M 25 32.765625 C 25.648438 28.410156 26.25 24.082031 25.628906 21.070312 C 25.523438 20.546875 25.390625 20.074219 25.277344 19.550781 C 25.132812 18.902344 25.058594 18.238281 25.058594 17.570312 C 25.058594 17.53125 25.078125 17.492188 25.117188 17.46875 C 25.152344 17.449219 25.199219 17.453125 25.230469 17.476562 C 26.8125 18.582031 27.675781 19.636719 28.769531 20.890625 C 28.878906 20.996094 28.957031 21.128906 28.996094 21.277344 C 29.03125 21.425781 28.996094 21.578125 28.902344 21.695312 C 28.550781 22.03125 28.160156 22.40625 27.667969 22.855469 C 28.007812 23.019531 28.34375 23.195312 28.679688 23.375 C 28.839844 23.445312 28.976562 23.558594 29.078125 23.703125 C 29.195312 23.914062 29.136719 24.175781 29.078125 24.410156 C 28.789062 25.546875 28.5 26.6875 28.210938 27.824219 L 26.714844 32.738281 Z M 25 32.765625 "/>
<path style=" stroke:none;fill-rule:nonzero;fill:rgb(12.941177%,9.019608%,8.235294%);fill-opacity:1;" d="M 25.308594 32.847656 C 25.636719 30.632812 25.96875 28.410156 26.125 26.175781 C 26.261719 24.277344 26.265625 22.359375 25.828125 20.496094 C 25.695312 19.933594 25.542969 19.371094 25.457031 18.796875 C 25.425781 18.585938 25.410156 18.378906 25.398438 18.167969 C 25.375 17.957031 25.367188 17.746094 25.382812 17.535156 L 25.339844 17.695312 L 25.199219 17.777344 L 25.039062 17.734375 C 25.253906 17.859375 25.453125 18.003906 25.636719 18.167969 C 25.835938 18.324219 26.027344 18.484375 26.21875 18.648438 C 26.5625 18.953125 26.890625 19.277344 27.207031 19.609375 C 27.515625 19.9375 27.8125 20.277344 28.109375 20.617188 C 28.261719 20.789062 28.410156 20.960938 28.5625 21.136719 C 28.652344 21.242188 28.75 21.378906 28.644531 21.503906 C 28.476562 21.679688 28.296875 21.851562 28.113281 22.007812 C 27.890625 22.21875 27.667969 22.425781 27.441406 22.628906 C 27.375 22.699219 27.339844 22.796875 27.351562 22.894531 C 27.367188 22.992188 27.421875 23.078125 27.507812 23.128906 C 27.855469 23.296875 28.199219 23.472656 28.539062 23.660156 C 28.632812 23.714844 28.761719 23.773438 28.808594 23.878906 C 28.867188 24.011719 28.804688 24.191406 28.773438 24.324219 C 28.578125 25.109375 28.375 25.890625 28.175781 26.671875 C 28.074219 27.066406 28.6875 27.238281 28.789062 26.839844 L 29.128906 25.507812 C 29.253906 25.085938 29.359375 24.652344 29.441406 24.21875 C 29.527344 23.8125 29.339844 23.398438 28.984375 23.1875 C 28.609375 22.960938 28.222656 22.761719 27.828125 22.582031 L 27.890625 23.078125 C 28.1875 22.808594 28.480469 22.535156 28.773438 22.257812 C 29.042969 22.003906 29.339844 21.777344 29.324219 21.367188 C 29.308594 20.957031 29 20.675781 28.746094 20.386719 C 28.511719 20.113281 28.273438 19.839844 28.03125 19.570312 C 27.550781 19.027344 27.03125 18.515625 26.480469 18.039062 C 26.164062 17.769531 25.832031 17.515625 25.496094 17.273438 C 25.328125 17.15625 25.132812 17.085938 24.941406 17.207031 C 24.746094 17.332031 24.742188 17.539062 24.746094 17.75 C 24.765625 18.445312 24.855469 19.140625 25.011719 19.824219 C 25.183594 20.566406 25.378906 21.300781 25.46875 22.0625 C 25.644531 23.605469 25.578125 25.171875 25.449219 26.714844 C 25.28125 28.714844 24.988281 30.699219 24.695312 32.679688 C 24.652344 32.847656 24.75 33.019531 24.917969 33.070312 C 25.085938 33.117188 25.261719 33.019531 25.308594 32.847656 Z M 25.308594 32.847656 "/>
<path style=" stroke:none;fill-rule:nonzero;fill:rgb(12.941177%,9.019608%,8.235294%);fill-opacity:1;" d="M 18.074219 17.636719 C 18.050781 21.617188 18.1875 25.589844 18.488281 29.5625 C 18.570312 30.65625 18.664062 31.75 18.769531 32.84375 C 18.773438 33.019531 18.914062 33.160156 19.085938 33.164062 C 19.261719 33.160156 19.402344 33.019531 19.40625 32.84375 C 19.015625 28.886719 18.796875 24.910156 18.726562 20.933594 C 18.710938 19.835938 18.703125 18.738281 18.707031 17.636719 C 18.710938 17.230469 18.074219 17.230469 18.074219 17.636719 Z M 18.074219 17.636719 "/>
<path style=" stroke:none;fill-rule:nonzero;fill:rgb(12.941177%,9.019608%,8.235294%);fill-opacity:1;" d="M 18.054688 17.335938 C 16.511719 18.40625 15.007812 19.714844 14.132812 21.40625 C 13.945312 21.769531 14.496094 22.089844 14.683594 21.726562 C 15.507812 20.128906 16.917969 18.894531 18.375 17.882812 C 18.523438 17.792969 18.574219 17.601562 18.488281 17.449219 C 18.398438 17.296875 18.207031 17.246094 18.054688 17.335938 Z M 18.054688 17.335938 "/>
<path style=" stroke:none;fill-rule:nonzero;fill:rgb(12.941177%,9.019608%,8.235294%);fill-opacity:1;" d="M 21.601562 22.253906 C 21.585938 23.792969 21.589844 25.332031 21.59375 26.871094 C 21.59375 27.28125 22.226562 27.28125 22.226562 26.871094 C 22.222656 25.332031 22.222656 23.792969 22.238281 22.253906 C 22.242188 21.84375 21.605469 21.84375 21.601562 22.253906 Z M 21.601562 22.253906 "/>
<path style=" stroke:none;fill-rule:nonzero;fill:rgb(12.941177%,9.019608%,8.235294%);fill-opacity:1;" d="M 20.972656 20.046875 C 21.113281 20.832031 21.328125 21.597656 21.613281 22.335938 C 21.648438 22.457031 21.753906 22.546875 21.878906 22.566406 C 22.003906 22.585938 22.132812 22.523438 22.195312 22.414062 C 22.375 22.003906 22.53125 21.585938 22.671875 21.160156 C 22.808594 20.765625 22.917969 20.363281 23 19.953125 C 23.039062 19.785156 22.941406 19.613281 22.777344 19.5625 C 22.605469 19.519531 22.433594 19.617188 22.386719 19.785156 C 22.308594 20.183594 22.203125 20.574219 22.070312 20.957031 C 22.003906 21.164062 21.929688 21.371094 21.855469 21.574219 C 21.816406 21.675781 21.777344 21.777344 21.738281 21.875 C 21.71875 21.917969 21.703125 21.964844 21.683594 22.007812 C 21.695312 21.976562 21.6875 21.992188 21.679688 22.015625 C 21.667969 22.039062 21.65625 22.066406 21.644531 22.09375 L 22.226562 22.167969 C 21.941406 21.429688 21.726562 20.660156 21.585938 19.878906 C 21.539062 19.710938 21.363281 19.613281 21.195312 19.65625 C 21.027344 19.707031 20.929688 19.878906 20.972656 20.046875 Z M 20.972656 20.046875 "/>
<path style=" stroke:none;fill-rule:nonzero;fill:rgb(12.941177%,9.019608%,8.235294%);fill-opacity:1;" d="M 26.484375 18.808594 C 27.246094 19.097656 28 19.40625 28.746094 19.730469 C 29.457031 20.042969 30.179688 20.351562 30.863281 20.722656 C 31.152344 20.875 31.425781 21.0625 31.671875 21.28125 C 31.917969 21.527344 32.121094 21.816406 32.269531 22.132812 C 32.46875 22.539062 32.625 22.964844 32.742188 23.402344 C 33.019531 24.429688 33.25 25.46875 33.421875 26.519531 C 33.625 27.664062 33.796875 28.816406 33.933594 29.972656 C 34 30.527344 34.058594 31.082031 34.101562 31.640625 C 34.152344 32.273438 34.183594 32.886719 34.023438 33.507812 C 33.921875 33.90625 34.535156 34.074219 34.636719 33.675781 C 34.910156 32.59375 34.734375 31.445312 34.613281 30.351562 C 34.480469 29.148438 34.3125 27.953125 34.109375 26.761719 C 33.917969 25.652344 33.707031 24.542969 33.417969 23.457031 C 33.308594 23.023438 33.167969 22.597656 32.996094 22.183594 C 32.851562 21.839844 32.671875 21.519531 32.457031 21.21875 C 32.230469 20.917969 31.953125 20.660156 31.640625 20.453125 C 30.933594 19.96875 30.105469 19.644531 29.328125 19.296875 C 28.449219 18.90625 27.554688 18.539062 26.652344 18.195312 C 26.484375 18.148438 26.308594 18.246094 26.261719 18.417969 C 26.21875 18.585938 26.316406 18.757812 26.484375 18.808594 Z M 26.484375 18.808594 "/>
<path style=" stroke:none;fill-rule:nonzero;fill:rgb(100%,100%,100%);fill-opacity:1;" d="M 12.277344 22.21875 C 12.246094 22.390625 12.21875 22.566406 12.191406 22.742188 C 12.148438 22.851562 12.136719 22.976562 12.164062 23.09375 C 13.019531 23.195312 14.390625 23.382812 15.21875 23.488281 C 15.328125 22.996094 15.363281 22.878906 15.472656 22.378906 C 15.472656 22.378906 15.488281 22.148438 15.503906 21.890625 C 17.507812 19.808594 17.203125 19.253906 16.746094 18.898438 L 16.292969 18.453125 C 16.378906 18.324219 16.480469 18.210938 16.59375 18.105469 C 16.796875 18.015625 16.820312 17.699219 16.679688 17.519531 C 16.527344 17.335938 16.273438 17.273438 16.039062 17.242188 C 15.269531 17.121094 14.480469 17.21875 13.761719 17.523438 L 13.8125 17.382812 C 13.941406 17.066406 13.8125 16.554688 13.65625 16.320312 C 13.550781 16.210938 13.410156 16.140625 13.257812 16.121094 C 13.035156 16.097656 12.816406 16.207031 12.703125 16.402344 C 12.3125 17.183594 12.128906 18 12.28125 18.820312 C 12.175781 19.003906 12.089844 19.199219 12.027344 19.398438 C 11.988281 19.867188 12.085938 20.761719 12.167969 21.417969 C 12.226562 21.871094 12.277344 22.210938 12.277344 22.21875 Z M 12.277344 22.21875 "/>
<path style=" stroke:none;fill-rule:nonzero;fill:rgb(100%,100%,100%);fill-opacity:1;" d="M 16.058594 21.34375 C 16.679688 21.949219 19.304688 25.03125 19.992188 25.722656 C 20.160156 25.886719 20.355469 26.066406 20.589844 26.046875 C 20.746094 26.035156 20.890625 25.960938 20.984375 25.835938 C 21.078125 25.710938 21.113281 25.550781 21.082031 25.398438 C 21.011719 25.121094 20.871094 24.863281 20.675781 24.652344 C 19.558594 23.363281 17.988281 21.425781 16.914062 20.085938 "/>
<path style=" stroke:none;fill-rule:nonzero;fill:rgb(12.941177%,9.019608%,8.235294%);fill-opacity:1;" d="M 15.832031 21.566406 C 16.316406 22.042969 16.757812 22.570312 17.207031 23.082031 C 17.8125 23.765625 18.410156 24.453125 19.019531 25.132812 C 19.230469 25.371094 19.445312 25.609375 19.667969 25.84375 C 19.816406 26.015625 19.992188 26.164062 20.191406 26.277344 C 20.492188 26.421875 20.847656 26.375 21.101562 26.160156 C 21.667969 25.699219 21.335938 24.953125 20.953125 24.488281 C 20.574219 24.027344 20.179688 23.582031 19.796875 23.121094 C 18.898438 22.042969 18.011719 20.957031 17.140625 19.859375 C 17.015625 19.738281 16.8125 19.738281 16.691406 19.859375 C 16.570312 19.984375 16.570312 20.183594 16.691406 20.308594 C 17.417969 21.21875 18.152344 22.121094 18.890625 23.023438 C 19.265625 23.472656 19.640625 23.921875 20.019531 24.371094 C 20.183594 24.566406 20.367188 24.753906 20.523438 24.960938 C 20.625 25.09375 20.816406 25.375 20.777344 25.554688 C 20.730469 25.757812 20.519531 25.753906 20.382812 25.648438 C 20.269531 25.554688 20.164062 25.453125 20.066406 25.339844 C 19.855469 25.117188 19.648438 24.886719 19.445312 24.65625 C 18.875 24.019531 18.3125 23.375 17.746094 22.734375 C 17.269531 22.191406 16.800781 21.625 16.28125 21.117188 C 15.992188 20.832031 15.539062 21.28125 15.832031 21.566406 Z M 15.832031 21.566406 "/>
<path style=" stroke:none;fill-rule:nonzero;fill:rgb(12.941177%,9.019608%,8.235294%);fill-opacity:1;" d="M 14.523438 19.289062 C 14.574219 19.234375 14.628906 19.179688 14.683594 19.128906 C 14.699219 19.113281 14.71875 19.101562 14.734375 19.085938 C 14.714844 19.105469 14.710938 19.105469 14.734375 19.085938 C 14.769531 19.0625 14.800781 19.039062 14.835938 19.015625 C 14.902344 18.976562 14.972656 18.9375 15.042969 18.90625 C 15.058594 18.898438 15.078125 18.890625 15.09375 18.882812 C 15.039062 18.90625 15.097656 18.878906 15.109375 18.875 C 15.152344 18.859375 15.191406 18.84375 15.234375 18.832031 C 15.398438 18.777344 15.566406 18.738281 15.734375 18.714844 C 15.6875 18.722656 15.742188 18.714844 15.761719 18.714844 C 15.78125 18.710938 15.804688 18.710938 15.824219 18.707031 C 15.871094 18.703125 15.921875 18.699219 15.96875 18.699219 C 16.070312 18.691406 16.167969 18.691406 16.269531 18.695312 C 16.445312 18.695312 16.585938 18.550781 16.585938 18.375 C 16.585938 18.199219 16.445312 18.058594 16.269531 18.058594 C 15.488281 18.042969 14.613281 18.222656 14.074219 18.839844 C 13.996094 18.917969 13.960938 19.035156 13.992188 19.148438 C 14.019531 19.257812 14.105469 19.34375 14.21875 19.375 C 14.328125 19.402344 14.445312 19.371094 14.523438 19.289062 Z M 14.523438 19.289062 "/>
<path style=" stroke:none;fill-rule:nonzero;fill:rgb(12.941177%,9.019608%,8.235294%);fill-opacity:1;" d="M 15.617188 20.464844 C 15.777344 20.335938 15.933594 20.195312 16.097656 20.066406 L 16.136719 20.03125 C 16.148438 20.023438 16.191406 19.988281 16.148438 20.023438 C 16.105469 20.054688 16.160156 20.015625 16.167969 20.007812 C 16.179688 20 16.191406 19.992188 16.203125 19.980469 C 16.265625 19.9375 16.324219 19.894531 16.386719 19.851562 C 16.5 19.773438 16.621094 19.703125 16.742188 19.644531 C 16.894531 19.554688 16.945312 19.359375 16.855469 19.207031 C 16.765625 19.0625 16.574219 19.011719 16.421875 19.09375 C 15.949219 19.324219 15.570312 19.691406 15.167969 20.015625 C 15.105469 20.074219 15.074219 20.15625 15.074219 20.242188 C 15.074219 20.324219 15.105469 20.40625 15.167969 20.464844 C 15.226562 20.523438 15.308594 20.558594 15.390625 20.558594 C 15.476562 20.554688 15.554688 20.523438 15.617188 20.464844 Z M 15.617188 20.464844 "/>
<path style=" stroke:none;fill-rule:nonzero;fill:rgb(12.941177%,9.019608%,8.235294%);fill-opacity:1;" d="M 12.546875 18.351562 C 12.539062 17.980469 12.589844 17.609375 12.699219 17.253906 C 12.75 17.082031 12.8125 16.917969 12.886719 16.753906 C 12.921875 16.667969 12.960938 16.585938 13.011719 16.507812 C 12.980469 16.550781 13.03125 16.488281 13.042969 16.480469 C 12.980469 16.535156 13.128906 16.441406 13.046875 16.476562 C 13.078125 16.464844 13.109375 16.457031 13.140625 16.449219 C 13.152344 16.445312 13.167969 16.441406 13.179688 16.441406 C 13.140625 16.445312 13.140625 16.445312 13.175781 16.441406 C 13.1875 16.441406 13.285156 16.441406 13.242188 16.4375 C 13.203125 16.433594 13.296875 16.453125 13.3125 16.457031 C 13.257812 16.4375 13.363281 16.488281 13.371094 16.496094 C 13.390625 16.507812 13.457031 16.527344 13.390625 16.507812 C 13.402344 16.515625 13.410156 16.523438 13.417969 16.535156 C 13.390625 16.496094 13.382812 16.492188 13.40625 16.523438 C 13.414062 16.542969 13.429688 16.570312 13.441406 16.589844 C 13.457031 16.625 13.457031 16.625 13.445312 16.589844 C 13.449219 16.609375 13.457031 16.628906 13.464844 16.648438 C 13.476562 16.675781 13.484375 16.703125 13.492188 16.734375 C 13.515625 16.804688 13.53125 16.878906 13.542969 16.953125 C 13.535156 16.898438 13.546875 17.015625 13.546875 17.027344 C 13.546875 17.058594 13.546875 17.09375 13.546875 17.125 C 13.546875 17.144531 13.542969 17.164062 13.542969 17.183594 C 13.546875 17.148438 13.546875 17.152344 13.539062 17.1875 C 13.527344 17.226562 13.519531 17.261719 13.503906 17.296875 C 13.460938 17.464844 13.558594 17.640625 13.726562 17.6875 C 13.898438 17.730469 14.070312 17.632812 14.117188 17.464844 C 14.214844 17.15625 14.203125 16.824219 14.09375 16.519531 C 14.050781 16.367188 13.976562 16.222656 13.878906 16.097656 C 13.773438 15.984375 13.640625 15.902344 13.496094 15.851562 C 13.171875 15.742188 12.820312 15.820312 12.570312 16.050781 C 12.449219 16.191406 12.355469 16.351562 12.296875 16.527344 C 12.214844 16.710938 12.144531 16.894531 12.085938 17.085938 C 11.960938 17.496094 11.902344 17.921875 11.914062 18.351562 C 11.914062 18.527344 12.054688 18.671875 12.230469 18.671875 C 12.40625 18.671875 12.546875 18.527344 12.546875 18.351562 Z M 12.546875 18.351562 "/>
<path style=" stroke:none;fill-rule:nonzero;fill:rgb(12.941177%,9.019608%,8.235294%);fill-opacity:1;" d="M 15.574219 22.273438 C 15.984375 21.863281 16.367188 21.429688 16.722656 20.972656 C 16.949219 20.691406 17.136719 20.378906 17.28125 20.042969 C 17.449219 19.628906 17.449219 19.1875 17.144531 18.835938 C 16.941406 18.601562 16.644531 18.386719 16.328125 18.375 C 15.917969 18.359375 15.917969 18.996094 16.328125 19.011719 C 16.449219 19.015625 16.582031 19.167969 16.683594 19.273438 C 16.75 19.339844 16.660156 19.222656 16.695312 19.285156 C 16.710938 19.3125 16.726562 19.339844 16.742188 19.363281 C 16.78125 19.421875 16.726562 19.289062 16.75 19.382812 C 16.761719 19.433594 16.757812 19.507812 16.761719 19.414062 C 16.761719 19.449219 16.765625 19.480469 16.765625 19.515625 C 16.765625 19.53125 16.761719 19.554688 16.761719 19.570312 C 16.765625 19.617188 16.78125 19.496094 16.761719 19.574219 C 16.742188 19.667969 16.714844 19.761719 16.679688 19.855469 C 16.707031 19.78125 16.671875 19.863281 16.664062 19.878906 C 16.652344 19.90625 16.640625 19.9375 16.625 19.964844 C 16.589844 20.03125 16.554688 20.09375 16.515625 20.15625 C 16.429688 20.300781 16.335938 20.4375 16.234375 20.570312 C 15.894531 21.015625 15.523438 21.433594 15.125 21.824219 C 14.839844 22.117188 15.289062 22.566406 15.574219 22.273438 Z M 15.574219 22.273438 "/>
<path style=" stroke:none;fill-rule:nonzero;fill:rgb(12.941177%,9.019608%,8.235294%);fill-opacity:1;" d="M 15.167969 22.292969 C 15.085938 22.667969 14.996094 23.039062 14.910156 23.414062 C 14.863281 23.582031 14.964844 23.757812 15.132812 23.804688 C 15.304688 23.851562 15.476562 23.753906 15.523438 23.582031 C 15.609375 23.210938 15.699219 22.835938 15.78125 22.464844 C 15.828125 22.292969 15.726562 22.121094 15.558594 22.074219 C 15.390625 22.027344 15.214844 22.125 15.167969 22.292969 Z M 15.167969 22.292969 "/>
<path style=" stroke:none;fill-rule:nonzero;fill:rgb(12.941177%,9.019608%,8.235294%);fill-opacity:1;" d="M 11.621094 23.351562 C 12.808594 23.460938 13.992188 23.648438 15.175781 23.800781 C 15.394531 23.828125 15.617188 23.859375 15.835938 23.878906 L 15.519531 23.5625 C 15.359375 25.21875 15.097656 26.871094 14.859375 28.519531 C 14.800781 28.917969 14.742188 29.3125 14.683594 29.710938 C 14.640625 29.878906 14.738281 30.050781 14.90625 30.101562 C 15.074219 30.148438 15.246094 30.046875 15.296875 29.878906 C 15.554688 28.15625 15.804688 26.433594 16.023438 24.703125 C 16.070312 24.324219 16.117188 23.945312 16.152344 23.5625 C 16.171875 23.378906 15.992188 23.261719 15.835938 23.246094 C 14.691406 23.128906 13.554688 22.945312 12.414062 22.804688 C 12.148438 22.773438 11.886719 22.738281 11.621094 22.714844 C 11.445312 22.714844 11.304688 22.855469 11.304688 23.03125 C 11.304688 23.207031 11.445312 23.347656 11.621094 23.351562 Z M 11.621094 23.351562 "/>
<path style=" stroke:none;fill-rule:nonzero;fill:rgb(12.941177%,9.019608%,8.235294%);fill-opacity:1;" d="M 12.339844 19.464844 C 12.625 18.59375 13.382812 17.949219 14.246094 17.679688 C 14.734375 17.535156 15.246094 17.480469 15.75 17.527344 C 15.945312 17.542969 16.214844 17.546875 16.378906 17.671875 C 16.410156 17.695312 16.4375 17.730469 16.449219 17.769531 C 16.457031 17.816406 16.421875 17.835938 16.480469 17.8125 C 16.316406 17.863281 16.21875 18.035156 16.257812 18.203125 C 16.308594 18.371094 16.480469 18.472656 16.652344 18.425781 C 16.867188 18.335938 17.023438 18.144531 17.070312 17.914062 C 17.117188 17.6875 17.050781 17.449219 16.886719 17.28125 C 16.542969 16.902344 15.90625 16.882812 15.433594 16.878906 C 14.398438 16.867188 13.359375 17.203125 12.597656 17.921875 C 12.199219 18.300781 11.898438 18.773438 11.726562 19.296875 C 11.597656 19.6875 12.210938 19.855469 12.339844 19.464844 Z M 12.339844 19.464844 "/>
<path style=" stroke:none;fill-rule:nonzero;fill:rgb(12.941177%,9.019608%,8.235294%);fill-opacity:1;" d="M 11.703125 19.453125 C 11.695312 20.066406 11.738281 20.683594 11.835938 21.289062 C 11.867188 21.558594 11.902344 21.824219 11.941406 22.09375 C 11.945312 22.128906 11.949219 22.167969 11.957031 22.207031 C 11.964844 22.257812 11.984375 22.296875 11.957031 22.199219 C 11.957031 22.203125 11.957031 22.210938 11.957031 22.214844 C 11.957031 22.222656 11.957031 22.214844 11.960938 22.191406 L 11.945312 22.277344 L 11.886719 22.65625 C 11.84375 22.824219 11.941406 22.996094 12.105469 23.046875 C 12.277344 23.09375 12.449219 22.996094 12.496094 22.824219 C 12.542969 22.625 12.578125 22.417969 12.59375 22.210938 C 12.585938 22.136719 12.578125 22.066406 12.5625 21.992188 C 12.550781 21.898438 12.535156 21.800781 12.523438 21.703125 C 12.519531 21.691406 12.511719 21.609375 12.515625 21.664062 L 12.503906 21.5625 C 12.492188 21.484375 12.484375 21.40625 12.472656 21.328125 C 12.375 20.707031 12.332031 20.082031 12.339844 19.453125 C 12.359375 19.042969 11.726562 19.042969 11.703125 19.453125 Z M 11.703125 19.453125 "/>
<path style=" stroke:none;fill-rule:nonzero;fill:rgb(100%,100%,100%);fill-opacity:1;" d="M 25.207031 34.160156 C 25.214844 34.015625 25.195312 33.867188 25.15625 33.726562 C 25.125 33.621094 24.921875 32.914062 24.601562 31.804688 C 23.691406 28.515625 23.160156 26.890625 23.160156 26.890625 C 23.054688 26.511719 22.472656 26.511719 21.859375 26.683594 C 21.246094 26.851562 20.832031 27.136719 20.9375 27.515625 C 21.144531 28.273438 21.96875 31.046875 22.472656 32.863281 C 22.609375 33.359375 22.734375 33.816406 22.839844 34.199219 C 23.082031 35.066406 23.742188 35.328125 24.304688 35.171875 C 24.855469 35.023438 25.183594 34.65625 25.207031 34.160156 Z M 25.207031 34.160156 "/>
<path style=" stroke:none;fill-rule:nonzero;fill:rgb(47.450981%,77.64706%,87.843138%);fill-opacity:1;" d="M 22.867188 34.285156 C 22.859375 34.253906 22.851562 34.226562 22.84375 34.199219 C 22.730469 33.785156 22.59375 33.292969 22.441406 32.753906 C 22.625 32.867188 22.917969 32.878906 23.285156 32.761719 C 23.710938 32.652344 24.144531 32.582031 24.582031 32.554688 C 24.664062 32.546875 24.742188 32.542969 24.8125 32.539062 C 25.011719 33.222656 25.132812 33.644531 25.15625 33.726562 C 25.195312 33.867188 25.214844 34.015625 25.207031 34.160156 C 25.183594 34.652344 24.855469 35.023438 24.308594 35.171875 C 23.761719 35.324219 23.125 35.082031 22.867188 34.285156 Z M 22.867188 34.285156 "/>
<path style=" stroke:none;fill-rule:nonzero;fill:rgb(12.941177%,9.019608%,8.235294%);fill-opacity:1;" d="M 25.527344 34.160156 C 25.519531 33.882812 25.46875 33.609375 25.378906 33.347656 C 25.269531 32.972656 25.160156 32.597656 25.050781 32.222656 C 24.769531 31.25 24.503906 30.269531 24.222656 29.296875 C 23.980469 28.46875 23.75 27.628906 23.46875 26.808594 C 23.160156 25.921875 21.84375 26.277344 21.226562 26.582031 C 20.859375 26.765625 20.542969 27.097656 20.617188 27.535156 C 20.664062 27.761719 20.726562 27.988281 20.804688 28.210938 C 21.253906 29.777344 21.71875 31.335938 22.15625 32.90625 C 22.289062 33.398438 22.40625 33.902344 22.566406 34.386719 C 22.683594 34.789062 22.949219 35.132812 23.308594 35.351562 C 23.992188 35.734375 24.972656 35.464844 25.355469 34.777344 C 25.457031 34.585938 25.515625 34.375 25.527344 34.160156 C 25.527344 33.984375 25.382812 33.84375 25.207031 33.84375 C 25.03125 33.84375 24.890625 33.984375 24.890625 34.160156 C 24.863281 34.464844 24.660156 34.71875 24.375 34.820312 C 24.15625 34.925781 23.902344 34.929688 23.679688 34.832031 C 23.40625 34.679688 23.214844 34.417969 23.148438 34.113281 C 23.015625 33.65625 22.894531 33.195312 22.769531 32.738281 C 22.363281 31.277344 21.933594 29.824219 21.511719 28.367188 C 21.441406 28.125 21.367188 27.882812 21.300781 27.636719 C 21.289062 27.59375 21.273438 27.550781 21.261719 27.507812 C 21.257812 27.488281 21.234375 27.378906 21.238281 27.417969 C 21.234375 27.398438 21.25 27.367188 21.234375 27.40625 C 21.273438 27.308594 21.199219 27.457031 21.25 27.359375 C 21.28125 27.3125 21.320312 27.269531 21.371094 27.234375 C 21.707031 27.019531 22.09375 26.902344 22.496094 26.894531 C 22.570312 26.890625 22.644531 26.894531 22.71875 26.90625 C 22.707031 26.902344 22.824219 26.9375 22.785156 26.921875 C 22.789062 26.921875 22.871094 26.980469 22.835938 26.945312 C 22.867188 26.976562 22.847656 26.953125 22.859375 26.992188 C 23.074219 27.753906 23.328125 28.507812 23.550781 29.269531 C 23.835938 30.242188 24.101562 31.21875 24.382812 32.191406 C 24.5 32.601562 24.617188 33.007812 24.734375 33.414062 C 24.824219 33.65625 24.875 33.90625 24.890625 34.164062 C 24.878906 34.570312 25.515625 34.570312 25.527344 34.160156 Z M 25.527344 34.160156 "/>
<path style=" stroke:none;fill-rule:nonzero;fill:rgb(100%,100%,100%);fill-opacity:1;" d="M 26.695312 28.460938 L 26.605469 28.433594 C 26.046875 28.253906 25.691406 28.007812 24.652344 27.96875 C 24.132812 27.984375 23.613281 28.039062 23.105469 28.136719 C 22.457031 28.261719 21.496094 28.722656 21.195312 29.09375 C 21 29.300781 20.902344 29.582031 20.929688 29.867188 C 20.949219 30.019531 20.992188 30.167969 21.054688 30.3125 C 20.792969 30.574219 20.578125 30.753906 20.519531 31.101562 C 20.457031 31.347656 20.578125 31.605469 20.8125 31.71875 C 20.9375 31.78125 21.078125 31.804688 21.21875 31.785156 L 21.253906 31.78125 C 21.25 32.003906 21.375 32.210938 21.578125 32.304688 C 21.800781 32.40625 22.09375 32.285156 22.253906 32.140625 C 22.109375 32.710938 22.542969 32.996094 23.285156 32.761719 C 23.710938 32.652344 24.144531 32.582031 24.582031 32.554688 C 25.324219 32.507812 25.65625 32.441406 26.972656 32.382812 C 27.507812 31.277344 28.085938 30.015625 28.511719 29.21875 L 27.6875 28.835938 C 27.367188 28.683594 27.035156 28.558594 26.695312 28.460938 Z M 26.695312 28.460938 "/>
<path style=" stroke:none;fill-rule:nonzero;fill:rgb(12.941177%,9.019608%,8.235294%);fill-opacity:1;" d="M 21.21875 31.46875 C 21.105469 31.492188 20.988281 31.46875 20.898438 31.398438 C 20.949219 31.433594 20.867188 31.367188 20.855469 31.351562 C 20.890625 31.394531 20.84375 31.328125 20.839844 31.316406 C 20.863281 31.367188 20.832031 31.28125 20.828125 31.273438 C 20.839844 31.324219 20.828125 31.230469 20.828125 31.21875 C 20.832031 31.089844 20.878906 30.964844 20.960938 30.867188 C 21.0625 30.75 21.167969 30.636719 21.285156 30.535156 C 21.5 30.347656 21.734375 30.175781 21.976562 30.023438 C 22.230469 29.839844 22.507812 29.691406 22.804688 29.585938 C 23.195312 29.464844 23.027344 28.851562 22.636719 28.972656 C 22.242188 29.109375 21.875 29.304688 21.539062 29.550781 C 21.21875 29.761719 20.917969 30.007812 20.640625 30.277344 C 20.335938 30.59375 20.09375 31.023438 20.222656 31.476562 C 20.363281 31.894531 20.777344 32.160156 21.21875 32.101562 C 21.390625 32.097656 21.53125 31.960938 21.535156 31.785156 C 21.535156 31.609375 21.394531 31.46875 21.21875 31.46875 Z M 21.21875 31.46875 "/>
<path style=" stroke:none;fill-rule:nonzero;fill:rgb(12.941177%,9.019608%,8.235294%);fill-opacity:1;" d="M 27.847656 28.5625 C 27.339844 28.328125 26.808594 28.179688 26.289062 27.980469 C 25.761719 27.777344 25.203125 27.667969 24.640625 27.652344 C 24.378906 27.652344 24.113281 27.671875 23.855469 27.707031 C 23.53125 27.738281 23.210938 27.789062 22.898438 27.859375 C 22.308594 27.996094 21.75 28.25 21.261719 28.609375 C 21.03125 28.773438 20.847656 28.992188 20.722656 29.246094 C 20.574219 29.601562 20.578125 30.003906 20.734375 30.359375 C 20.785156 30.523438 20.957031 30.621094 21.125 30.578125 C 21.292969 30.53125 21.394531 30.359375 21.347656 30.1875 C 21.257812 29.953125 21.191406 29.742188 21.296875 29.511719 C 21.378906 29.351562 21.5 29.210938 21.648438 29.109375 C 22.082031 28.800781 22.570312 28.582031 23.085938 28.464844 C 24.066406 28.238281 25.089844 28.207031 26.039062 28.5625 C 26.535156 28.75 27.046875 28.890625 27.527344 29.109375 C 27.679688 29.195312 27.871094 29.144531 27.960938 28.996094 C 28.050781 28.84375 28 28.652344 27.847656 28.5625 Z M 27.847656 28.5625 "/>
<path style=" stroke:none;fill-rule:nonzero;fill:rgb(12.941177%,9.019608%,8.235294%);fill-opacity:1;" d="M 21.933594 32.113281 C 21.855469 32.566406 22.035156 33 22.507812 33.125 C 22.980469 33.25 23.460938 33.023438 23.921875 32.949219 C 24.332031 32.882812 24.75 32.863281 25.164062 32.828125 C 25.640625 32.785156 26.113281 32.746094 26.589844 32.71875 C 26.996094 32.695312 27 32.0625 26.589844 32.082031 C 25.804688 32.125 25.003906 32.175781 24.222656 32.269531 C 23.992188 32.296875 23.765625 32.328125 23.539062 32.375 C 23.34375 32.414062 23.152344 32.488281 22.953125 32.515625 C 22.882812 32.523438 22.816406 32.527344 22.746094 32.523438 C 22.707031 32.519531 22.667969 32.511719 22.628906 32.496094 C 22.605469 32.488281 22.609375 32.488281 22.628906 32.496094 C 22.613281 32.488281 22.59375 32.476562 22.578125 32.464844 C 22.621094 32.507812 22.558594 32.4375 22.554688 32.433594 C 22.574219 32.453125 22.5625 32.445312 22.554688 32.421875 C 22.539062 32.375 22.535156 32.328125 22.546875 32.28125 C 22.589844 32.113281 22.492188 31.941406 22.324219 31.890625 C 22.15625 31.847656 21.980469 31.945312 21.933594 32.113281 Z M 21.933594 32.113281 "/>
<path style=" stroke:none;fill-rule:nonzero;fill:rgb(12.941177%,9.019608%,8.235294%);fill-opacity:1;" d="M 23.0625 30.144531 C 22.328125 30.351562 21.601562 30.722656 21.132812 31.34375 C 21.050781 31.4375 20.988281 31.550781 20.953125 31.671875 C 20.90625 31.917969 20.976562 32.175781 21.144531 32.363281 C 21.496094 32.792969 22.089844 32.699219 22.472656 32.371094 C 22.492188 32.355469 22.515625 32.335938 22.535156 32.316406 C 22.582031 32.273438 22.5 32.339844 22.5625 32.296875 C 22.605469 32.265625 22.652344 32.238281 22.699219 32.210938 C 22.746094 32.183594 22.792969 32.15625 22.84375 32.132812 C 22.871094 32.121094 22.898438 32.109375 22.925781 32.09375 C 22.984375 32.066406 22.886719 32.109375 22.957031 32.082031 C 23.113281 32.015625 23.277344 31.964844 23.445312 31.925781 C 23.613281 31.878906 23.714844 31.707031 23.667969 31.535156 C 23.621094 31.367188 23.445312 31.269531 23.277344 31.3125 C 22.964844 31.382812 22.667969 31.496094 22.390625 31.652344 C 22.308594 31.699219 22.234375 31.75 22.160156 31.808594 C 22.121094 31.839844 22.082031 31.871094 22.042969 31.90625 C 22.035156 31.914062 22 31.941406 22.042969 31.90625 C 22.019531 31.925781 21.996094 31.941406 21.972656 31.957031 C 21.953125 31.964844 21.859375 32.007812 21.910156 31.992188 C 21.890625 31.996094 21.867188 32.003906 21.847656 32.011719 C 21.855469 32.007812 21.757812 32.03125 21.800781 32.023438 C 21.84375 32.015625 21.746094 32.023438 21.75 32.023438 C 21.738281 32.027344 21.691406 32.015625 21.746094 32.027344 C 21.726562 32.023438 21.707031 32.019531 21.6875 32.011719 C 21.746094 32.03125 21.679688 32 21.667969 31.992188 C 21.71875 32.023438 21.648438 31.972656 21.628906 31.957031 C 21.589844 31.914062 21.621094 31.945312 21.628906 31.957031 C 21.617188 31.9375 21.605469 31.917969 21.59375 31.898438 C 21.589844 31.890625 21.566406 31.839844 21.582031 31.878906 C 21.597656 31.921875 21.574219 31.84375 21.570312 31.84375 C 21.566406 31.824219 21.570312 31.785156 21.570312 31.855469 C 21.570312 31.84375 21.5625 31.792969 21.570312 31.789062 C 21.566406 31.789062 21.5625 31.867188 21.574219 31.808594 C 21.570312 31.816406 21.542969 31.863281 21.5625 31.835938 C 21.574219 31.824219 21.582031 31.808594 21.589844 31.792969 C 21.613281 31.753906 21.640625 31.71875 21.664062 31.683594 C 21.6875 31.648438 21.609375 31.75 21.648438 31.703125 C 21.65625 31.695312 21.664062 31.683594 21.671875 31.675781 C 21.6875 31.660156 21.703125 31.640625 21.71875 31.625 C 21.757812 31.578125 21.800781 31.535156 21.84375 31.492188 C 21.890625 31.449219 21.9375 31.40625 21.984375 31.367188 C 21.996094 31.359375 22.007812 31.347656 22.019531 31.339844 C 22.078125 31.289062 21.980469 31.363281 22.023438 31.335938 C 22.054688 31.3125 22.089844 31.289062 22.125 31.261719 C 22.277344 31.15625 22.445312 31.0625 22.613281 30.980469 C 22.632812 30.972656 22.652344 30.964844 22.671875 30.953125 C 22.683594 30.949219 22.753906 30.917969 22.738281 30.925781 C 22.707031 30.9375 22.773438 30.914062 22.777344 30.910156 C 22.808594 30.898438 22.839844 30.886719 22.871094 30.875 C 22.992188 30.828125 23.113281 30.792969 23.234375 30.757812 C 23.402344 30.710938 23.503906 30.535156 23.457031 30.367188 C 23.410156 30.195312 23.234375 30.097656 23.066406 30.144531 Z M 23.0625 30.144531 "/>
<path style=" stroke:none;fill-rule:nonzero;fill:rgb(12.941177%,9.019608%,8.235294%);fill-opacity:1;" d="M 26.945312 33.160156 C 27.328125 32.390625 27.691406 31.613281 28.0625 30.839844 C 28.363281 30.207031 28.660156 29.566406 29.023438 28.964844 L 28.585938 29.078125 C 29.214844 29.449219 29.851562 29.804688 30.472656 30.1875 C 30.820312 30.402344 31.140625 29.851562 30.792969 29.636719 C 30.171875 29.253906 29.535156 28.902344 28.90625 28.53125 C 28.757812 28.445312 28.5625 28.496094 28.472656 28.644531 C 28.109375 29.246094 27.816406 29.886719 27.511719 30.519531 C 27.140625 31.292969 26.777344 32.070312 26.394531 32.839844 C 26.214844 33.203125 26.761719 33.527344 26.945312 33.160156 Z M 26.945312 33.160156 "/>
</g>
</svg>
